<?xml version="1.0" encoding="UTF-8"?>
<svg xmlns="http://www.w3.org/2000/svg" xmlns:xlink="http://www.w3.org/1999/xlink" width="3750" height="3750" viewBox="0 0 3750 3750">

<path fill-rule="nonzero" fill="rgb(0%, 0%, 0%)" fill-opacity="1" d="M 2987.269531 3126.640625 L 2984.601562 3126.113281 C 2967.738281 3120.910156 2924.359375 3115.820312 2854.46875 3110.839844 C 2754.898438 3103.484375 2642.839844 3096.839844 2518.28125 3090.902344 C 2522.78125 3090.980469 2484.46875 3089.300781 2403.359375 3085.859375 C 2343.628906 3083.535156 2283.878906 3081.671875 2224.109375 3080.273438 L 2134.449219 3078.519531 C 2074.660156 3077.582031 2014.878906 3077.097656 1955.078125 3077.066406 C 1835.480469 3077.015625 1715.921875 3078.75 1596.398438 3082.269531 L 1506.789062 3085.234375 C 1451.929688 3087.242188 1387.351562 3090.066406 1313.03125 3093.703125 C 1174.820312 3100.710938 1070.070312 3107.164062 998.796875 3113.066406 C 966.890625 3115.796875 938.585938 3118.683594 913.882812 3121.730469 C 909.074219 3123.9375 909.179688 3126.105469 914.203125 3128.238281 C 914.726562 3128.476562 918 3128.59375 924.023438 3128.582031 C 934.808594 3130.179688 956.484375 3132.03125 989.042969 3134.140625 C 1012.890625 3135.667969 1036.761719 3136.976562 1060.640625 3138.070312 C 1134.640625 3141.621094 1229.359375 3145.101562 1344.789062 3148.507812 C 1453.46875 3151.785156 1569.378906 3154.324219 1692.5 3156.121094 C 1752.269531 3156.957031 1812.039062 3157.535156 1871.808594 3157.855469 L 1961.46875 3158.144531 C 2081.019531 3158.277344 2200.550781 3157.34375 2320.070312 3155.351562 C 2457.460938 3152.707031 2559.078125 3150.253906 2624.921875 3147.984375 C 2737.058594 3144.417969 2825.808594 3140.785156 2891.160156 3137.085938 C 2925.5 3135.917969 2957.53125 3132.433594 2987.269531 3126.640625 "/>
<path fill-rule="nonzero" fill="rgb(99.609375%, 99.609375%, 99.609375%)" fill-opacity="1" d="M 1816.179688 812.96875 L 1847.121094 938.5 C 1913.621094 888.101562 1969.03125 860.261719 2013.359375 854.980469 C 2055.710938 846.140625 2130.308594 852.789062 2237.171875 874.941406 C 2151.710938 887.398438 2092.378906 921.03125 2059.171875 975.839844 C 2142.570312 1029.210938 2205.011719 1093.308594 2246.480469 1168.140625 C 2264.769531 1198.378906 2282.769531 1229.628906 2300.480469 1261.898438 C 2314.539062 1330.140625 2324.46875 1384 2330.28125 1423.488281 C 2342.628906 1504.140625 2344.539062 1569.039062 2336 1618.191406 C 2330.269531 1664.96875 2308.058594 1739.171875 2269.359375 1840.78125 C 2282.808594 1895.738281 2287.078125 1937.691406 2282.179688 1966.648438 C 2274.261719 2000.808594 2248.570312 2030.730469 2205.121094 2056.410156 C 2270.929688 2186.671875 2308.25 2279.460938 2317.089844 2334.800781 C 2330.21875 2391.878906 2325.851562 2467.71875 2303.988281 2562.308594 C 2428.710938 2678.308594 2497.96875 2762.179688 2511.78125 2813.921875 C 2534.261719 2866.78125 2519.429688 2939.816406 2467.289062 3033.027344 L 2697.449219 2958.910156 C 2721.160156 2999.09375 2729.230469 3028.117188 2721.671875 3045.992188 C 2717.570312 3064.257812 2692.011719 3089.441406 2644.980469 3121.539062 C 2511.949219 3118.066406 2398.890625 3123.1875 2305.808594 3136.90625 C 2303.628906 3168.625 2291.109375 3189.242188 2268.230469 3198.765625 C 2246.261719 3212.652344 2195.378906 3221.753906 2115.578125 3226.074219 C 2008.800781 3231.558594 1949.699219 3198.210938 1938.300781 3126.03125 L 1850.519531 3129.476562 C 1818.46875 3182.871094 1781.121094 3213.667969 1738.480469 3221.867188 C 1700.289062 3232.097656 1646.398438 3231.546875 1576.820312 3220.222656 C 1508.308594 3209.28125 1469.03125 3178.121094 1459 3126.742188 L 1320.230469 3066.761719 C 1298.929688 2953.4375 1295.339844 2863.6875 1309.441406 2797.507812 C 1330.589844 2718.28125 1388.730469 2638.761719 1483.871094 2558.941406 C 1468.191406 2446.929688 1467.441406 2363.46875 1481.628906 2308.539062 C 1491.878906 2253.421875 1529.269531 2171.820312 1593.808594 2063.730469 C 1538.890625 2019.441406 1508.828125 1976.238281 1503.628906 1934.128906 C 1498.050781 1910.570312 1498.691406 1864.410156 1505.558594 1795.671875 C 1473.109375 1708.570312 1454.710938 1630.160156 1450.371094 1560.421875 C 1446.371094 1506.5 1455.230469 1429.871094 1476.949219 1330.539062 C 1485.019531 1294.339844 1493.589844 1257.859375 1502.671875 1221.128906 C 1643.191406 1080.589844 1732.898438 987.789062 1771.78125 942.738281 L 1816.179688 812.96875 "/>
<path fill-rule="nonzero" fill="rgb(0%, 0%, 0%)" fill-opacity="1" d="M 2228.730469 1124.039062 L 2239.230469 1114.851562 C 2288.191406 1072.050781 2319.800781 1048.230469 2334.070312 1043.410156 C 2348.480469 1035.378906 2363.140625 1035.78125 2378.050781 1044.578125 C 2385.929688 1049.230469 2395.609375 1056.5 2407.089844 1066.410156 L 2551.039062 1192.511719 C 2597.761719 1233.261719 2640.039062 1271.691406 2677.878906 1307.828125 C 2724.128906 1352.351562 2751.871094 1386.339844 2761.089844 1409.808594 C 2771.109375 1430.039062 2772.589844 1458.429688 2765.558594 1494.949219 C 2761.988281 1518.730469 2749.199219 1553.609375 2727.199219 1599.558594 C 2686.101562 1681.699219 2627.859375 1757.128906 2552.5 1825.851562 C 2475.019531 1895.488281 2423.5 1898.460938 2397.96875 1834.761719 C 2393.578125 1826.160156 2387.589844 1809.121094 2380 1783.621094 C 2364.199219 1723.640625 2349.699219 1671.109375 2336.519531 1626.019531 C 2338.910156 1479.839844 2333.46875 1379.699219 2320.199219 1325.621094 C 2309.511719 1268.148438 2279.019531 1200.960938 2228.730469 1124.039062 "/>
<path fill-rule="nonzero" fill="rgb(25.097656%, 25.097656%, 27.830505%)" fill-opacity="1" d="M 2408.371094 1457.75 L 2408.300781 1455.910156 C 2407.949219 1443.929688 2406.871094 1427.820312 2405.070312 1407.578125 C 2404.109375 1396.070312 2401.089844 1367.179688 2396.019531 1320.910156 L 2394.589844 1305.539062 C 2393.640625 1294.121094 2393.808594 1289.03125 2395.101562 1290.28125 C 2396.640625 1291.671875 2397.730469 1293.429688 2398.371094 1295.539062 C 2403.449219 1310.539062 2407.011719 1321.480469 2409.058594 1328.359375 C 2415.878906 1350.898438 2421.75 1372.660156 2426.671875 1393.640625 C 2435.558594 1429.058594 2440.398438 1459.359375 2441.191406 1484.519531 C 2441.5 1497.738281 2440.960938 1510.949219 2439.558594 1524.148438 C 2438.03125 1539.5 2435.171875 1559.230469 2430.980469 1583.339844 C 2427.269531 1604.660156 2422.359375 1627.089844 2416.230469 1650.640625 C 2411.359375 1668.320312 2408.140625 1676.589844 2406.578125 1675.460938 C 2406.140625 1675.308594 2405.570312 1674.441406 2404.890625 1672.828125 C 2404.699219 1672.539062 2404.570312 1671.410156 2404.519531 1669.460938 L 2404.941406 1663.378906 C 2404.621094 1656.898438 2404.761719 1641.230469 2405.359375 1616.371094 C 2407.269531 1553.199219 2408.269531 1516.859375 2408.351562 1507.328125 C 2408.730469 1485.871094 2408.730469 1469.351562 2408.371094 1457.75 "/>
<path fill-rule="nonzero" fill="rgb(0%, 0%, 0%)" fill-opacity="1" d="M 1569.070312 1129.308594 L 1558.878906 1119.769531 C 1511.359375 1075.371094 1480.558594 1050.519531 1466.449219 1045.230469 C 1452.320312 1036.730469 1437.660156 1036.640625 1422.460938 1044.941406 C 1414.429688 1049.328125 1404.511719 1056.28125 1392.710938 1065.800781 L 1244.660156 1187.058594 C 1196.609375 1226.238281 1153.078125 1263.25 1114.070312 1298.109375 C 1066.371094 1341.070312 1037.519531 1374.128906 1027.519531 1397.28125 C 1016.839844 1417.171875 1014.410156 1445.480469 1020.230469 1482.230469 C 1023.019531 1506.109375 1034.640625 1541.390625 1055.109375 1588.050781 C 1093.460938 1671.5 1149.171875 1748.820312 1222.210938 1820 C 1297.351562 1892.179688 1348.730469 1896.851562 1376.371094 1834.03125 C 1381.039062 1825.589844 1387.589844 1808.75 1396.019531 1783.511719 C 1413.800781 1724.101562 1430.019531 1672.070312 1444.691406 1627.441406 C 1447.160156 1481.261719 1455.910156 1381.359375 1470.960938 1327.75 C 1483.550781 1270.660156 1516.25 1204.519531 1569.070312 1129.308594 "/>
<path fill-rule="nonzero" fill="rgb(25.097656%, 25.097656%, 27.830505%)" fill-opacity="1" d="M 1378.460938 1456.890625 L 1378.601562 1455.050781 C 1379.339844 1443.078125 1380.960938 1427.019531 1383.429688 1406.851562 C 1384.769531 1395.378906 1388.738281 1366.609375 1395.339844 1320.53125 L 1397.269531 1305.210938 C 1398.609375 1293.828125 1398.609375 1288.738281 1397.28125 1289.941406 C 1395.679688 1291.289062 1394.539062 1293 1393.839844 1295.089844 C 1388.261719 1309.921875 1384.339844 1320.730469 1382.070312 1327.539062 C 1374.488281 1349.839844 1367.898438 1371.398438 1362.300781 1392.210938 C 1352.238281 1427.308594 1346.390625 1457.429688 1344.769531 1482.550781 C 1344.019531 1495.761719 1344.128906 1508.980469 1345.089844 1522.210938 C 1346.109375 1537.601562 1348.320312 1557.410156 1351.699219 1581.648438 C 1354.699219 1603.089844 1358.871094 1625.671875 1364.210938 1649.410156 C 1368.5 1667.238281 1371.441406 1675.609375 1373.039062 1674.53125 C 1373.480469 1674.398438 1374.070312 1673.539062 1374.808594 1671.960938 C 1375.011719 1671.679688 1375.179688 1670.558594 1375.289062 1668.601562 L 1375.078125 1662.511719 C 1375.609375 1656.050781 1375.988281 1640.378906 1376.21875 1615.519531 C 1376.398438 1552.320312 1376.609375 1515.960938 1376.839844 1506.441406 C 1377.171875 1484.980469 1377.710938 1468.460938 1378.460938 1456.890625 "/>
<path fill-rule="nonzero" fill="rgb(0%, 0%, 0%)" fill-opacity="1" d="M 1599.160156 1723.929688 L 1598.851562 1724.089844 C 1517.78125 1779.511719 1476.941406 1841.660156 1476.328125 1910.570312 C 1476.46875 1987.539062 1512.28125 2049.308594 1583.75 2095.871094 C 1663.851562 2148.53125 1759.578125 2177.371094 1870.960938 2182.429688 C 1981.449219 2185.28125 2082.988281 2162.621094 2175.570312 2114.441406 C 2269.089844 2063.839844 2316.019531 1998.96875 2316.359375 1919.839844 C 2316.320312 1838.089844 2271.011719 1769.800781 2180.441406 1714.949219 C 2236.898438 1778 2267.730469 1824.53125 2272.941406 1854.570312 C 2285.539062 1908.558594 2279.230469 1953.230469 2254 1988.609375 C 2226.480469 2026.910156 2180.878906 2058.410156 2117.199219 2083.109375 C 2049.941406 2109.839844 1979.289062 2124.46875 1905.21875 2127 C 1875.019531 2127.871094 1843.378906 2125.960938 1810.308594 2121.28125 C 1775.671875 2116.320312 1736.539062 2106.359375 1692.910156 2091.398438 C 1619.929688 2064.398438 1570.289062 2032.578125 1543.980469 1995.941406 C 1515.261719 1954 1506.160156 1910.269531 1516.691406 1864.761719 C 1521 1845.78125 1528.910156 1826.761719 1540.429688 1807.710938 C 1546.308594 1796.558594 1565.191406 1770.710938 1597.089844 1730.148438 C 1599.121094 1727.980469 1599.808594 1725.898438 1599.160156 1723.929688 "/>
<path fill-rule="nonzero" fill="rgb(0%, 0%, 0%)" fill-opacity="1" d="M 1493.78125 1818.679688 L 1493.769531 1818.679688 L 1493.648438 1818.421875 L 1493.660156 1818.421875 C 1468.339844 1764.75 1442.039062 1708.980469 1432.839844 1617.691406 C 1423.75 1527.640625 1431.25 1402.628906 1454.910156 1312.488281 C 1478.960938 1220.898438 1519.710938 1165.039062 1567.789062 1121.320312 C 1583.019531 1107.480469 1598.921875 1094.910156 1614.300781 1082.75 C 1630.019531 1070.308594 1645.21875 1058.28125 1659.820312 1045 C 1675.558594 1030.691406 1690.359375 1015.140625 1703.679688 996.730469 C 1742.148438 943.550781 1769.75 864.851562 1798.550781 782.160156 C 1801.449219 773.839844 1809.621094 768.539062 1818.398438 769.300781 C 1827.179688 770.058594 1834.328125 776.671875 1835.769531 785.359375 L 1860.71875 936.570312 L 1830.109375 924.308594 C 1881.570312 885.578125 1937.230469 843.269531 2009.25 830.660156 L 2009.238281 830.660156 C 2010.699219 830.410156 2012.179688 830.160156 2013.648438 829.929688 C 2086.679688 818.480469 2174.910156 838.101562 2257.980469 856.289062 C 2267.25 858.320312 2273.660156 866.800781 2273.089844 876.28125 C 2272.519531 885.75 2265.128906 893.398438 2255.679688 894.308594 C 2234.46875 896.320312 2214.171875 898.269531 2194.941406 901.628906 C 2175.5 905.03125 2157.960938 909.761719 2142.699219 916.988281 C 2112.039062 931.519531 2087.730469 957.269531 2060.480469 986.550781 L 2056.238281 956.859375 C 2088.25 975.941406 2121.390625 995.679688 2162.121094 1031.328125 C 2203 1067.121094 2251.769531 1119.140625 2291.21875 1208.101562 C 2330.25 1296.128906 2360.238281 1420.570312 2359.859375 1529.949219 C 2359.46875 1639.839844 2328.359375 1733.640625 2298.398438 1824.390625 C 2295.070312 1834.5 2284.171875 1839.988281 2274.058594 1836.648438 C 2263.949219 1833.320312 2258.460938 1822.410156 2261.800781 1812.308594 C 2291.949219 1720.980469 2320.949219 1632.71875 2321.308594 1529.808594 C 2321.671875 1426.398438 2293.050781 1307.308594 2255.980469 1223.730469 C 2219.328125 1141.070312 2174.5 1093.398438 2136.730469 1060.339844 C 2098.800781 1027.140625 2068.21875 1008.878906 2036.5 989.96875 C 2031.5 986.980469 2028.109375 981.898438 2027.289062 976.128906 C 2026.46875 970.371094 2028.289062 964.539062 2032.261719 960.28125 C 2058.5 932.101562 2087.699219 900.390625 2126.199219 882.160156 C 2145.75 872.890625 2166.980469 867.390625 2188.289062 863.660156 C 2209.269531 859.988281 2231.109375 857.921875 2252.03125 855.929688 L 2249.730469 893.941406 C 2164.269531 875.230469 2083.96875 857.929688 2019.621094 868.019531 C 2018.371094 868.210938 2017.128906 868.421875 2015.890625 868.628906 C 1954.449219 879.390625 1905.96875 915.460938 1853.300781 955.109375 C 1847.910156 959.171875 1840.800781 960.109375 1834.539062 957.609375 C 1828.28125 955.101562 1823.789062 949.5 1822.691406 942.851562 L 1797.730469 791.640625 L 1834.949219 794.839844 C 1806.789062 875.710938 1777.410156 960.570312 1734.910156 1019.328125 C 1719.648438 1040.421875 1702.898438 1057.929688 1685.75 1073.519531 C 1670.019531 1087.828125 1653.769531 1100.671875 1638.210938 1112.980469 C 1622.671875 1125.269531 1607.808594 1137.039062 1593.71875 1149.839844 C 1550.691406 1188.96875 1514.191406 1238.488281 1492.199219 1322.269531 C 1469.828125 1407.5 1462.519531 1527.851562 1471.191406 1613.828125 C 1479.710938 1698.28125 1503.601562 1749.140625 1528.519531 1801.980469 L 1528.640625 1802.238281 C 1533.179688 1811.859375 1529.058594 1823.351562 1519.429688 1827.890625 C 1509.808594 1832.429688 1498.320312 1828.308594 1493.78125 1818.679688 Z M 1493.78125 1818.679688 "/>
<path fill-rule="nonzero" fill="rgb(0%, 0%, 0%)" fill-opacity="1" d="M 1606.359375 2077.929688 C 1576.710938 2123.710938 1548.238281 2167.75 1526.839844 2235.628906 C 1505.308594 2303.921875 1490.800781 2396.828125 1496.078125 2504.488281 C 1501.160156 2608.179688 1524.550781 2725.589844 1541.058594 2808.371094 L 1541.058594 2808.375 L 1543.109375 2818.671875 L 1543.121094 2818.675781 C 1559.609375 2901.527344 1567.039062 2942.582031 1574.460938 2983.578125 C 1575.539062 2989.539062 1573.75 2995.660156 1569.628906 3000.105469 L 1569.628906 3000.109375 L 1569.28125 3000.488281 L 1569.28125 3000.484375 C 1538.398438 3033.835938 1510.921875 3063.886719 1498.410156 3091.078125 C 1486.941406 3116.042969 1488.679688 3137.769531 1502.539062 3158.839844 C 1516.828125 3180.550781 1545.089844 3202.953125 1597.710938 3211.171875 C 1628.808594 3216.03125 1668.21875 3215.890625 1704.929688 3211.09375 C 1731.410156 3207.632812 1755.488281 3201.875 1773.46875 3194.433594 C 1813.96875 3177.671875 1826.171875 3151.464844 1840.769531 3119.339844 C 1843.78125 3112.710938 1850.269531 3108.34375 1857.550781 3108.054688 L 1934.058594 3104.996094 C 1944.058594 3104.597656 1952.699219 3111.90625 1953.960938 3121.832031 C 1957.398438 3149.003906 1960.300781 3166.425781 1981.390625 3179.355469 C 2006.550781 3194.765625 2058.179688 3204.539062 2115.199219 3206.835938 C 2143.179688 3207.960938 2171.078125 3207.234375 2195.980469 3203.980469 C 2220.929688 3200.71875 2241.640625 3195.074219 2256.289062 3187.125 C 2284.140625 3172.027344 2294.140625 3146.015625 2295.839844 3123.234375 C 2297.449219 3101.722656 2291.300781 3084.992188 2278.289062 3065.859375 C 2264.691406 3045.875 2244.761719 3024.945312 2223.269531 3002.460938 C 2218.621094 2997.59375 2216.851562 2990.65625 2218.589844 2984.152344 C 2242.558594 2894.730469 2266.238281 2806.359375 2281.480469 2688.96875 C 2296.800781 2570.960938 2303.421875 2424.921875 2286.980469 2318.871094 C 2270.75 2214.109375 2231.921875 2147.628906 2191.5 2078.628906 C 2186.128906 2069.449219 2189.210938 2057.640625 2198.390625 2052.261719 C 2207.578125 2046.878906 2219.390625 2049.960938 2224.769531 2059.148438 C 2265.410156 2128.539062 2307.640625 2200.441406 2325.078125 2312.96875 C 2342.320312 2424.21875 2335.21875 2574.378906 2319.710938 2693.929688 C 2304.109375 2814.097656 2279.820312 2904.640625 2255.820312 2994.136719 L 2251.140625 2975.828125 C 2271.988281 2997.644531 2294.398438 3021.011719 2310.160156 3044.175781 C 2326.488281 3068.1875 2336.71875 3093.457031 2334.28125 3126.101562 C 2331.941406 3157.480469 2317.5 3197.785156 2274.671875 3221.011719 C 2254.128906 3232.152344 2228.160156 3238.652344 2200.980469 3242.203125 C 2173.339844 3245.816406 2143.148438 3246.539062 2113.640625 3245.351562 C 2056.109375 3243.035156 1995.570312 3233.25 1961.25 3212.222656 C 1922.890625 3188.714844 1919.03125 3152.820312 1915.710938 3126.675781 L 1935.609375 3143.511719 L 1859.089844 3146.570312 L 1875.859375 3135.285156 C 1860.878906 3168.269531 1843.5 3207.171875 1788.210938 3230.054688 C 1766.070312 3239.214844 1738.429688 3245.59375 1709.921875 3249.316406 C 1670.328125 3254.492188 1627.160156 3254.789062 1591.769531 3249.257812 C 1529.980469 3239.609375 1491.429688 3212.085938 1470.339844 3180.03125 C 1448.828125 3147.339844 1446.609375 3111.460938 1463.390625 3074.972656 C 1479.039062 3040.957031 1511.660156 3005.980469 1541 2974.292969 L 1541.351562 2973.914062 L 1536.519531 2990.441406 C 1529.128906 2949.570312 1521.75 2908.757812 1505.308594 2826.207031 L 1505.308594 2826.210938 L 1503.261719 2815.910156 L 1503.261719 2815.914062 C 1486.851562 2733.671875 1462.820312 2613.421875 1457.578125 2506.371094 C 1452.089844 2394.359375 1467.109375 2296.871094 1490.070312 2224.039062 C 1513.171875 2150.800781 1544.179688 2103.019531 1574 2056.96875 C 1579.789062 2048.039062 1591.730469 2045.488281 1600.660156 2051.269531 C 1609.601562 2057.058594 1612.148438 2069 1606.359375 2077.929688 Z M 1606.359375 2077.929688 "/>
<path fill-rule="nonzero" fill="rgb(0%, 0%, 0%)" fill-opacity="1" d="M 2328.421875 2553.621094 C 2388.46875 2599.210938 2453.179688 2647.921875 2488.5 2712.828125 C 2524.160156 2778.394531 2528.910156 2857.980469 2518.058594 2931.488281 C 2507.308594 3004.375 2480.460938 3076.261719 2444.460938 3115.300781 C 2411.589844 3150.949219 2372.921875 3157.449219 2338.488281 3160.199219 C 2333.050781 3160.632812 2327.609375 3160.980469 2322.359375 3161.3125 C 2311.730469 3161.988281 2302.570312 3153.925781 2301.898438 3143.300781 C 2301.21875 3132.679688 2309.289062 3123.519531 2319.910156 3122.84375 C 2325.210938 3122.503906 2330.339844 3122.179688 2335.421875 3121.773438 C 2367.160156 3119.238281 2393.390625 3113.820312 2416.121094 3089.167969 C 2444.570312 3058.316406 2469.679688 2995.316406 2479.929688 2925.863281 C 2490.078125 2857.035156 2484.871094 2786.828125 2454.628906 2731.25 C 2424.039062 2675.019531 2366.910156 2631.238281 2305.109375 2584.328125 C 2296.640625 2577.890625 2294.980469 2565.800781 2301.421875 2557.320312 C 2307.851562 2548.851562 2319.941406 2547.191406 2328.421875 2553.621094 Z M 2328.421875 2553.621094 "/>
<path fill-rule="nonzero" fill="rgb(0%, 0%, 0%)" fill-opacity="1" d="M 1490.609375 2581.160156 C 1439.789062 2623.21875 1391.398438 2663.410156 1357.109375 2710.300781 C 1323.320312 2756.492188 1303.191406 2809.398438 1301.601562 2874.074219 C 1299.960938 2940.636719 1317.839844 3016.433594 1348.128906 3055.238281 C 1376.699219 3091.832031 1418.390625 3098.085938 1469.839844 3104.785156 C 1480.390625 3106.160156 1487.839844 3115.832031 1486.460938 3126.386719 C 1485.089844 3136.945312 1475.410156 3144.386719 1464.859375 3143.011719 C 1416.039062 3136.652344 1357.46875 3129.847656 1317.75 3078.960938 C 1279.75 3030.285156 1261.308594 2944.183594 1263.058594 2873.125 C 1264.859375 2800.175781 1287.820312 2739.730469 1325.988281 2687.539062 C 1363.640625 2636.050781 1416.058594 2592.828125 1466.03125 2551.460938 C 1474.230469 2544.679688 1486.378906 2545.820312 1493.171875 2554.03125 C 1499.960938 2562.230469 1498.808594 2574.371094 1490.609375 2581.160156 Z M 1490.609375 2581.160156 "/>
<path fill-rule="nonzero" fill="rgb(0%, 0%, 0%)" fill-opacity="1" d="M 2460.570312 3025.453125 C 2515.75 3001.628906 2571.21875 2977.671875 2614.179688 2960.140625 C 2647.351562 2946.605469 2687.011719 2929.558594 2713.878906 2941.417969 C 2717.679688 2943.097656 2721.269531 2945.320312 2724.53125 2948.136719 C 2725.628906 2949.089844 2726.671875 2950.085938 2727.648438 2951.113281 C 2742.46875 2966.742188 2744.410156 2991.277344 2742.609375 3010.316406 C 2741.308594 3024.007812 2737.789062 3038.359375 2732.25 3051.546875 C 2717.859375 3085.824219 2690.21875 3110.664062 2667.261719 3131.683594 C 2663.308594 3135.304688 2658.171875 3137.359375 2652.808594 3137.46875 L 2434.378906 3141.886719 C 2422.199219 3142.132812 2412.128906 3132.460938 2411.878906 3120.285156 C 2411.640625 3108.105469 2421.308594 3098.035156 2433.488281 3097.789062 L 2651.921875 3093.367188 L 2637.46875 3099.152344 C 2661.871094 3076.808594 2681.578125 3058.285156 2691.578125 3034.464844 C 2695.359375 3025.46875 2697.808594 3015.480469 2698.699219 3006.152344 C 2700.21875 2990.085938 2696.691406 2982.570312 2695.640625 2981.464844 C 2695.640625 2981.464844 2695.660156 2981.488281 2695.710938 2981.53125 C 2695.878906 2981.679688 2696.039062 2981.757812 2696.070312 2981.773438 C 2690.828125 2979.460938 2674.128906 2983.316406 2630.851562 3000.976562 C 2588.390625 3018.304688 2533.378906 3042.058594 2478.058594 3065.949219 C 2466.878906 3070.777344 2453.898438 3065.628906 2449.070312 3054.445312 C 2444.238281 3043.261719 2449.390625 3030.28125 2460.570312 3025.453125 Z M 2460.570312 3025.453125 "/>
<path fill-rule="nonzero" fill="rgb(84.375%, 84.375%, 83.984375%)" fill-opacity="1" d="M 1798.820312 2649.621094 L 1800.238281 2660.128906 C 1807.671875 2716.929688 1818.25 2753.753906 1831.988281 2770.59375 C 1833.140625 2772.980469 1837.761719 2778.53125 1845.851562 2787.238281 C 1852.609375 2793.835938 1859.800781 2799.144531 1867.429688 2803.15625 C 1878.878906 2809.265625 1890.519531 2811.773438 1902.339844 2810.6875 C 1906.730469 2810.1875 1911.03125 2809.105469 1915.210938 2807.445312 C 1917.460938 2807.253906 1923.441406 2803.601562 1933.171875 2796.484375 C 1944.621094 2786.695312 1954.621094 2773.457031 1963.179688 2756.765625 C 1978.328125 2725.941406 1991.019531 2682.011719 2001.238281 2624.980469 L 2020.371094 2898.660156 L 1937.769531 3040.308594 L 1833.410156 3017.925781 L 1771.980469 2806.101562 L 1798.820312 2649.621094 "/>
<path fill-rule="nonzero" fill="rgb(0%, 0%, 0%)" fill-opacity="1" d="M 1957.199219 3123.152344 L 1836.738281 3127.148438 C 1838.558594 3108.320312 1837.21875 3093.242188 1832.699219 3081.910156 C 1832.46875 3080.601562 1830.371094 3076.96875 1826.410156 3071.011719 L 1802.761719 3040.796875 C 1797.480469 3033.398438 1792.160156 3024.160156 1786.789062 3013.085938 C 1775.789062 2990.316406 1766.308594 2961.113281 1758.351562 2925.476562 C 1744.21875 2860.363281 1741.441406 2789.675781 1750 2713.421875 C 1763.121094 2613.921875 1796.820312 2527.511719 1851.109375 2454.179688 C 1827.269531 2520.429688 1812.539062 2581.691406 1806.898438 2637.96875 C 1804.269531 2664.328125 1803.570312 2700.410156 1804.820312 2746.191406 C 1807.628906 2823.296875 1810.511719 2866.507812 1813.460938 2875.816406 C 1820.820312 2919.894531 1842.191406 2955.558594 1877.550781 2982.816406 C 1892.390625 2992.027344 1905.871094 2994.71875 1917.980469 2990.894531 C 1933.070312 2984.425781 1943.441406 2976.253906 1949.089844 2966.371094 C 1964.71875 2946.5 1977.648438 2908.453125 1987.890625 2852.230469 C 1992.699219 2824.210938 1995.988281 2794.542969 1997.761719 2763.226562 C 1999.109375 2724.480469 1999.359375 2701.410156 1998.480469 2694.03125 C 1996.648438 2648.480469 1990.269531 2608.171875 1979.339844 2573.089844 C 1973.359375 2548.21875 1955.269531 2505.710938 1925.101562 2445.578125 C 1974.488281 2509.019531 2005.339844 2558.179688 2017.648438 2593.058594 C 2035.699219 2639.089844 2045.539062 2690.21875 2047.160156 2746.460938 C 2049.800781 2812.984375 2044.019531 2878.519531 2029.839844 2943.0625 C 2024.558594 2967.875 2015.660156 2993.332031 2003.121094 3019.433594 C 2001.71875 3022.699219 1997.511719 3029.5625 1990.5 3040.023438 L 1965.199219 3070.433594 C 1961.058594 3076.164062 1958.898438 3079.644531 1958.71875 3080.867188 C 1954.308594 3091.617188 1953.800781 3105.710938 1957.199219 3123.152344 "/>
<path fill-rule="nonzero" fill="rgb(0%, 0%, 0%)" fill-opacity="1" d="M 2217.300781 1537.800781 L 2217.449219 1549.738281 C 2215.558594 1573.980469 2206 1594 2188.761719 1609.808594 C 2171.390625 1625.621094 2150.050781 1633.179688 2124.75 1632.460938 C 2100.5 1630.578125 2080.480469 1621.019531 2064.660156 1603.789062 C 2059.589844 1598.210938 2055.28125 1592.039062 2051.75 1585.269531 L 2047.128906 1574.769531 C 2044.480469 1567.5 2042.820312 1559.820312 2042.148438 1551.75 C 2040.800781 1526.890625 2047.710938 1505.578125 2062.871094 1487.800781 C 2078.03125 1470.019531 2097.988281 1459.820312 2122.75 1457.21875 C 2147.609375 1455.871094 2168.929688 1462.78125 2186.71875 1477.929688 C 2204.5 1493.089844 2214.699219 1513.039062 2217.300781 1537.800781 "/>
<path fill-rule="nonzero" fill="rgb(0%, 0%, 0%)" fill-opacity="1" d="M 2063.699219 1486.761719 L 2074.25 1486.578125 C 2105.941406 1485.988281 2129.679688 1486.609375 2145.46875 1488.429688 C 2166.410156 1490.910156 2182 1494.410156 2192.25 1498.949219 C 2205.75 1504.738281 2216.730469 1511.730469 2225.179688 1519.921875 C 2229.621094 1523.980469 2233.671875 1528.070312 2237.308594 1532.179688 L 2257.738281 1556.980469 C 2259.378906 1559.011719 2261.070312 1560.28125 2262.808594 1560.761719 C 2265.011719 1560.511719 2265.878906 1556.921875 2265.421875 1549.980469 C 2264.28125 1540.660156 2263.199219 1534.558594 2262.191406 1531.679688 C 2258.378906 1516.5 2252.011719 1502.308594 2243.078125 1489.101562 C 2228.46875 1469.460938 2210.25 1455.800781 2188.410156 1448.121094 C 2164.5 1439.519531 2139.148438 1438.828125 2112.351562 1446.039062 C 2100.738281 1449.550781 2091.609375 1454.03125 2084.960938 1459.488281 C 2077.109375 1465.75 2070.019531 1474.839844 2063.699219 1486.761719 "/>
<path fill-rule="nonzero" fill="rgb(99.609375%, 99.609375%, 99.609375%)" fill-opacity="1" d="M 2137.460938 1525.71875 L 2135.949219 1530.019531 C 2132.179688 1538.46875 2126.511719 1544.46875 2118.941406 1548.019531 C 2111.320312 1551.558594 2103.53125 1551.640625 2095.539062 1548.28125 C 2088.039062 1544.628906 2082.890625 1538.75 2080.101562 1530.628906 C 2079.199219 1528.011719 2078.640625 1525.269531 2078.390625 1522.410156 L 2078.289062 1518.078125 C 2078.390625 1515.148438 2078.859375 1512.191406 2079.710938 1509.21875 C 2082.519531 1500.148438 2087.511719 1493.359375 2094.679688 1488.851562 C 2101.839844 1484.339844 2109.550781 1483.140625 2117.789062 1485.25 C 2125.910156 1487.820312 2131.808594 1492.910156 2135.511719 1500.519531 C 2139.210938 1508.140625 2139.859375 1516.539062 2137.460938 1525.71875 "/>
<path fill-rule="nonzero" fill="rgb(0%, 0%, 0%)" fill-opacity="1" d="M 1579.96875 1530.011719 L 1579.019531 1541.910156 C 1579.269531 1566.21875 1587.460938 1586.839844 1603.601562 1603.78125 C 1619.871094 1620.730469 1640.648438 1629.691406 1665.941406 1630.679688 C 1690.261719 1630.441406 1710.890625 1622.25 1727.828125 1606.109375 C 1733.261719 1600.890625 1737.96875 1595.019531 1741.949219 1588.511719 L 1747.261719 1578.339844 C 1750.398438 1571.261719 1752.570312 1563.710938 1753.78125 1555.699219 C 1756.800781 1530.988281 1751.339844 1509.261719 1737.410156 1490.5 C 1723.46875 1471.738281 1704.238281 1460.230469 1679.71875 1455.96875 C 1655 1452.960938 1633.269531 1458.410156 1614.5 1472.339844 C 1595.738281 1486.269531 1584.230469 1505.488281 1579.96875 1530.011719 "/>
<path fill-rule="nonzero" fill="rgb(0%, 0%, 0%)" fill-opacity="1" d="M 1736.648438 1489.410156 L 1726.140625 1488.519531 C 1694.558594 1485.808594 1670.828125 1484.820312 1654.949219 1485.578125 C 1633.890625 1486.640625 1618.101562 1489.101562 1607.570312 1492.941406 C 1593.710938 1497.800781 1582.289062 1504.039062 1573.300781 1511.640625 C 1568.601562 1515.398438 1564.289062 1519.210938 1560.371094 1523.058594 L 1538.328125 1546.429688 C 1536.550781 1548.351562 1534.78125 1549.5 1533.019531 1549.859375 C 1530.839844 1549.46875 1530.210938 1545.820312 1531.128906 1538.929688 C 1532.898438 1529.710938 1534.390625 1523.699219 1535.589844 1520.890625 C 1540.410156 1506 1547.710938 1492.269531 1557.519531 1479.691406 C 1573.410156 1461.070312 1592.511719 1448.671875 1614.820312 1442.480469 C 1639.25 1435.5 1664.589844 1436.519531 1690.851562 1445.519531 C 1702.191406 1449.789062 1711 1454.878906 1717.269531 1460.769531 C 1724.679688 1467.550781 1731.140625 1477.089844 1736.648438 1489.410156 "/>
<path fill-rule="nonzero" fill="rgb(99.609375%, 99.609375%, 99.609375%)" fill-opacity="1" d="M 1660.441406 1523.328125 L 1661.660156 1527.71875 C 1664.851562 1536.410156 1670.101562 1542.769531 1677.421875 1546.820312 C 1684.769531 1550.859375 1692.550781 1551.46875 1700.75 1548.648438 C 1708.46875 1545.519531 1714 1539.988281 1717.339844 1532.078125 C 1718.410156 1529.53125 1719.160156 1526.828125 1719.589844 1524 L 1719.980469 1519.679688 C 1720.078125 1516.75 1719.808594 1513.769531 1719.171875 1510.75 C 1716.96875 1501.511719 1712.441406 1494.390625 1705.601562 1489.410156 C 1698.761719 1484.429688 1691.148438 1482.71875 1682.78125 1484.269531 C 1674.511719 1486.289062 1668.269531 1490.960938 1664.070312 1498.320312 C 1659.871094 1505.660156 1658.660156 1514 1660.441406 1523.328125 "/>
<path fill-rule="nonzero" fill="rgb(0%, 0%, 0%)" fill-opacity="1" d="M 1890.519531 1710.5 L 1892.878906 1710.5 C 1938.128906 1710.921875 1975.210938 1716.621094 2004.121094 1727.621094 C 2015.140625 1731.578125 2024.269531 1737.691406 2031.511719 1745.980469 C 2036.03125 1752.5 2038.011719 1759.910156 2037.449219 1768.21875 C 2038.128906 1780.589844 2031.769531 1799.800781 2018.359375 1825.828125 C 2003.710938 1854.230469 1991.019531 1872.738281 1980.28125 1881.371094 C 1972.640625 1889.691406 1958.609375 1897.710938 1938.199219 1905.410156 C 1936 1906.441406 1929.03125 1908.179688 1917.289062 1910.621094 C 1907.789062 1912.261719 1898.339844 1913.058594 1888.921875 1913 C 1851.941406 1911.21875 1819.96875 1897.949219 1792.988281 1873.179688 C 1780.648438 1862.679688 1766.128906 1842.390625 1749.398438 1812.320312 C 1740.238281 1794.839844 1735.988281 1781.050781 1736.640625 1770.929688 C 1736.449219 1762.648438 1739.03125 1755.308594 1744.378906 1748.910156 C 1752.441406 1741.128906 1762.171875 1735.359375 1773.550781 1731.589844 C 1803.070312 1719.789062 1842.058594 1712.761719 1890.519531 1710.5 "/>
<path fill-rule="nonzero" fill="rgb(0%, 0%, 0%)" fill-opacity="1" d="M 1895.410156 1933.460938 L 1897.191406 1939.128906 C 1905.53125 1965.570312 1913.660156 1982.46875 1921.570312 1989.828125 C 1926.441406 1995.160156 1932.058594 1999.699219 1938.410156 2003.441406 C 1941.550781 2005.328125 1944.710938 2007.070312 1947.910156 2008.671875 L 1973.359375 2020.609375 C 1975.539062 2021.769531 1977.351562 2022.929688 1978.800781 2024.078125 C 1984.300781 2028.800781 1984.898438 2033.101562 1980.621094 2036.960938 C 1976.730469 2040.660156 1969.710938 2043.308594 1959.550781 2044.890625 C 1951.921875 2046.121094 1943.53125 2045.398438 1934.390625 2042.75 C 1922.128906 2038.570312 1908.609375 2026.988281 1893.820312 2007.988281 C 1889.550781 2015.609375 1884.648438 2022.570312 1879.128906 2028.898438 C 1877.230469 2030.941406 1875.160156 2032.820312 1872.929688 2034.53125 L 1869.429688 2036.929688 C 1867 2038.429688 1864.351562 2039.699219 1861.460938 2040.71875 C 1852 2043.679688 1841.460938 2044.390625 1829.828125 2042.851562 C 1816.558594 2041.011719 1808.53125 2038.148438 1805.730469 2034.261719 C 1804.859375 2032.160156 1806.28125 2029.96875 1809.980469 2027.691406 C 1811.75 2026.550781 1813.871094 2025.359375 1816.339844 2024.140625 L 1837.511719 2014.019531 C 1840.410156 2012.53125 1843.171875 2010.960938 1845.761719 2009.320312 C 1853.460938 2004.371094 1859.929688 1998.871094 1865.171875 1992.808594 C 1875.398438 1982.101562 1885.480469 1962.320312 1895.410156 1933.460938 "/>
<path fill-rule="nonzero" fill="rgb(99.609375%, 99.609375%, 99.609375%)" fill-opacity="1" d="M 1944.871094 1765.890625 L 1945.28125 1766.039062 C 1948.160156 1766.871094 1951.070312 1768.429688 1954 1770.71875 C 1955.871094 1772.308594 1957.320312 1773.769531 1958.359375 1775.109375 L 1964.359375 1783.390625 C 1964.878906 1783.910156 1965.488281 1784.238281 1966.199219 1784.371094 C 1966.820312 1784.46875 1967.410156 1784.421875 1967.96875 1784.230469 C 1969.089844 1783.820312 1970.089844 1783.058594 1971 1781.949219 L 1975.78125 1774.949219 C 1978 1771.351562 1979.378906 1768.25 1979.890625 1765.640625 C 1980.898438 1760.039062 1978.96875 1756.308594 1974.089844 1754.449219 C 1973.648438 1754.160156 1972.03125 1753.769531 1969.21875 1753.269531 C 1968.289062 1753.070312 1964.609375 1752.789062 1958.160156 1752.441406 C 1953.019531 1752.050781 1944.429688 1751.878906 1932.390625 1751.929688 C 1919.660156 1751.988281 1906.78125 1752.351562 1893.738281 1753.011719 C 1890.410156 1753.148438 1884.339844 1753.53125 1875.539062 1754.128906 C 1874.160156 1754.210938 1872.828125 1754.480469 1871.558594 1754.949219 C 1871.128906 1755.410156 1872.769531 1755.921875 1876.480469 1756.460938 C 1875.738281 1756.53125 1888.5 1758.019531 1914.769531 1760.949219 C 1918.519531 1761.390625 1922.269531 1761.878906 1926.011719 1762.390625 C 1935.269531 1763.679688 1941.558594 1764.839844 1944.871094 1765.890625 "/>
<path fill-rule="nonzero" fill="rgb(0%, 0%, 0%)" fill-opacity="1" d="M 2046.699219 3209.789062 L 2045.070312 3203.871094 C 2037.46875 3176.296875 2034.5 3158.054688 2036.140625 3149.148438 C 2037.769531 3134.582031 2043.539062 3124.34375 2053.480469 3118.433594 C 2058.378906 3116.234375 2062.140625 3117.917969 2064.75 3123.484375 C 2065.25 3124.023438 2066.339844 3127.234375 2068.03125 3133.121094 C 2071.558594 3149.992188 2074.441406 3161.605469 2076.648438 3167.96875 C 2080.398438 3178.039062 2083.640625 3184.710938 2086.359375 3187.976562 C 2092.53125 3197.597656 2102.089844 3203.492188 2115.039062 3205.664062 C 2124.859375 3207.183594 2135.75 3206.46875 2147.730469 3203.515625 C 2157.679688 3201.261719 2165.789062 3196.882812 2172.039062 3190.371094 C 2174.539062 3188.359375 2177.320312 3183.007812 2180.410156 3174.316406 C 2181.199219 3171.636719 2181.890625 3168.726562 2182.46875 3165.574219 L 2186.78125 3135.90625 L 2188.578125 3127.457031 C 2190.019531 3122.195312 2191.890625 3118.894531 2194.199219 3117.5625 C 2195.898438 3116.367188 2198.328125 3116.292969 2201.488281 3117.339844 C 2204.089844 3118.359375 2206.660156 3120.085938 2209.21875 3122.519531 C 2214.460938 3127.273438 2218.269531 3133.714844 2220.640625 3141.835938 C 2222.289062 3150.035156 2221.75 3158.695312 2219 3167.820312 C 2215.96875 3179.148438 2209.640625 3196.976562 2200 3221.300781 L 2046.699219 3209.789062 "/>
<path fill-rule="nonzero" fill="rgb(0%, 0%, 0%)" fill-opacity="1" d="M 1584.640625 3212.863281 L 1582.550781 3208.066406 C 1572.578125 3187.378906 1569.179688 3169.359375 1572.359375 3154.011719 C 1577.609375 3135.152344 1586.5 3121.214844 1599.019531 3112.207031 C 1601.789062 3111.128906 1603.519531 3112.21875 1604.230469 3115.472656 C 1604.628906 3117.042969 1604.878906 3118.972656 1604.980469 3121.261719 L 1605.359375 3146.421875 L 1606.390625 3154.960938 C 1607.960938 3163.058594 1610.769531 3170.238281 1614.839844 3176.503906 C 1619.570312 3184.308594 1627.25 3192.277344 1637.878906 3200.410156 C 1647.070312 3206.410156 1654.851562 3209.503906 1661.21875 3209.695312 C 1668.628906 3210.558594 1676.878906 3208.859375 1685.980469 3204.597656 C 1694.871094 3200.292969 1702.640625 3193.878906 1709.28125 3185.359375 C 1713.570312 3179.6875 1716.871094 3173.335938 1719.179688 3166.296875 C 1720.109375 3165.332031 1723.21875 3152.230469 1728.5 3126.988281 C 1730.199219 3121.570312 1731.988281 3118.132812 1733.859375 3116.675781 C 1736.890625 3113.804688 1740.371094 3113.128906 1744.308594 3114.648438 C 1747.800781 3116.117188 1750.640625 3119.214844 1752.820312 3123.945312 C 1758.871094 3133.324219 1756.089844 3164.421875 1744.488281 3217.238281 L 1629.660156 3239.691406 L 1584.640625 3212.863281 "/>
<path fill-rule="nonzero" fill="rgb(0%, 0%, 0%)" fill-opacity="1" d="M 1947.851562 881.710938 L 1937.109375 889.5 C 1897.378906 917.960938 1867.390625 941.980469 1847.140625 961.550781 C 1835.269531 973.011719 1825.070312 984.210938 1816.539062 995.160156 C 1811.320312 1001.191406 1800.410156 1016.488281 1783.789062 1041.070312 L 1779.789062 1046.039062 L 1778.78125 1046.449219 C 1776.328125 1044.839844 1789.941406 1003.660156 1819.628906 922.910156 L 1947.851562 881.710938 "/>
<path fill-rule="nonzero" fill="rgb(0%, 0%, 0%)" fill-opacity="1" d="M 2040.359375 951.839844 L 2037.539062 954.941406 C 2031.71875 960.941406 2026.679688 967.890625 2022.421875 975.820312 C 2021.058594 978.53125 2019.878906 981.460938 2018.859375 984.609375 L 2017.511719 989.53125 C 2016.699219 992.929688 2016.128906 996.628906 2015.808594 1000.621094 C 2015.109375 1013.550781 2015.949219 1026.628906 2018.328125 1039.871094 C 2019.820312 1048.359375 2021.390625 1054.878906 2023.039062 1059.429688 C 2023.839844 1061.609375 2024.570312 1062.980469 2025.230469 1063.570312 C 2025.21875 1063.808594 2025.601562 1063.808594 2026.359375 1063.570312 L 2027.109375 1062.28125 C 2027.570312 1061.050781 2028.011719 1059.25 2028.421875 1056.890625 L 2032.058594 1033.140625 C 2032.679688 1029.480469 2033.429688 1025.859375 2034.289062 1022.300781 C 2035.128906 1018.78125 2036.160156 1015.390625 2037.359375 1012.128906 L 2039.261719 1007.46875 C 2042.878906 997.898438 2051.820312 986.128906 2066.058594 972.160156 L 2040.359375 951.839844 "/>
</svg>
