<?xml version="1.0" encoding="UTF-8"?>
<svg width="125px" height="136px" viewBox="0 0 125 136" version="1.1" xmlns="http://www.w3.org/2000/svg" xmlns:xlink="http://www.w3.org/1999/xlink">
    <title>Torob_warranty_sign</title>
    <defs>
        <linearGradient x1="92.2405274%" y1="-1.97149624e-14%" x2="7.75947265%" y2="100%" id="linearGradient-1">
            <stop stop-color="#262FFF" stop-opacity="0.1" offset="0%"></stop>
            <stop stop-color="#262FFF" stop-opacity="0.1" offset="39.9607406%"></stop>
            <stop stop-color="#262FFF" offset="50.1291662%"></stop>
            <stop stop-color="#262FFF" stop-opacity="0.1" offset="59.843324%"></stop>
            <stop stop-color="#262FFF" stop-opacity="0.1" offset="100%"></stop>
        </linearGradient>
        <linearGradient x1="100%" y1="0.554513141%" x2="0%" y2="99.4454869%" id="linearGradient-2">
            <stop stop-color="#262FFF" stop-opacity="0.1" offset="0%"></stop>
            <stop stop-color="#262FFF" stop-opacity="0.1" offset="39.9607406%"></stop>
            <stop stop-color="#262FFF" offset="50.1291662%"></stop>
            <stop stop-color="#262FFF" stop-opacity="0.1" offset="59.843324%"></stop>
            <stop stop-color="#262FFF" stop-opacity="0.1" offset="100%"></stop>
        </linearGradient>
        <linearGradient x1="3.59682329%" y1="4.68430661e-16%" x2="96.4031767%" y2="100%" id="linearGradient-3">
            <stop stop-color="#FFFF00" offset="0%"></stop>
            <stop stop-color="#FFFF00" offset="20.4915368%"></stop>
            <stop stop-color="#00FF00" offset="40.0710227%"></stop>
            <stop stop-color="#00FFFF" offset="49.808785%"></stop>
            <stop stop-color="#FF00FF" offset="90.050077%"></stop>
            <stop stop-color="#FF00FF" offset="100%"></stop>
        </linearGradient>
        <linearGradient x1="0%" y1="69.470707%" x2="101.644312%" y2="69.470707%" id="linearGradient-4">
            <stop stop-color="#FFFF00" offset="0.0245847902%"></stop>
            <stop stop-color="#00FF00" offset="40.0710227%"></stop>
            <stop stop-color="#00FFFF" offset="49.808785%"></stop>
            <stop stop-color="#FF00FF" offset="100%"></stop>
        </linearGradient>
    </defs>
    <g id="Main" stroke="none" stroke-width="1" fill="none" fill-rule="evenodd">
        <g id="Footer" transform="translate(-22, -48)">
            <g transform="translate(21.9992, 48)">
                <rect id="bg" fill="#1C1C5D" x="0.000753048833" y="0" width="125" height="136" rx="7.3020134"></rect>
                <path d="M125.000674,112.030794 L125.000674,114.332604 C116.059539,116.143149 110.33588,118.801262 105.072232,121.704984 L104.550497,121.994369 C104.116813,122.236161 103.685658,122.479501 103.255466,122.724047 L99.4820686,124.882958 L98.7672694,125.286719 L97.699087,125.881263 L96.9208813,126.30606 L96.3825145,126.595138 C89.346054,130.345955 80.7936664,133.802463 65.3527558,135.366567 C47.7950291,137.145096 37.150122,134.874335 27.3942684,132.314173 L22.2190637,130.936381 L20.3727167,130.454972 L19.3720692,130.201149 L18.1386518,129.897343 C12.7726276,128.600109 7.10194751,127.567583 0.00128687481,127.358053 L0.00128687481,125.176455 C9.49530677,125.436051 16.6178665,127.05082 23.3146487,128.806352 L23.9624131,128.976893 L28.564724,130.203782 L30.4414097,130.69297 L31.4745876,130.954756 L32.8428681,131.290467 C41.09004,133.271277 50.087338,134.612448 63.9027467,133.295806 L64.6933133,133.218083 C79.6658282,131.701426 87.5406845,128.387059 94.464217,124.617206 L95.5778236,124.00308 L96.6666629,123.390169 L97.7564779,122.768541 L100.442815,121.229728 L101.523207,120.619649 L102.035979,120.333749 L103.074338,119.76398 L103.607484,119.476921 L104.783406,118.858872 C109.813351,116.262617 115.71407,113.848984 124.315935,112.162423 L125.000674,112.030794 Z M125.001099,94.0907401 L125.001099,96.3561264 C112.494692,98.0769504 105.449689,101.216921 99.1298718,104.728224 L98.0871637,105.314036 L97.0529574,105.905601 L93.2828603,108.090904 L92.5686862,108.4996 L91.5014381,109.101412 L90.723913,109.531403 L90.0610585,109.891379 C83.0543465,113.662023 74.5195164,117.128816 59.1833969,118.702672 C41.6410261,120.502943 31.0054289,118.204422 21.2581078,115.612963 L16.0874293,114.218328 L14.2426971,113.731034 L13.5766722,113.559202 C9.36084436,112.479863 5.02260968,111.534438 8.93875046e-05,111.005338 L8.93875046e-05,108.764162 C6.16872575,109.35974 11.3238879,110.529345 16.2061418,111.805073 L17.829254,112.234886 L22.4275397,113.476773 L24.3025841,113.971942 L24.9902352,114.149188 C33.7133791,116.379671 42.9702096,118.032132 57.7346559,116.606596 L58.5245311,116.527924 C74.2912849,114.909874 82.1805068,111.270427 89.3820299,107.20027 L90.469917,106.579865 L91.5587788,105.950638 L94.2427667,104.393014 L95.3222136,103.775477 L96.0922028,103.341612 L97.1179065,102.7747 C103.560648,99.258259 111.209832,95.9701529 124.29489,94.1849319 L125.001099,94.0907401 Z M125.002463,76.6043878 L125.002463,78.8053611 L124.698541,78.8356109 C108.732786,80.4427809 100.828077,84.0789205 93.549532,88.1305543 L92.5131966,88.7120114 L88.7353384,90.8599783 L88.0196941,91.2616924 L86.9502489,91.8532223 L86.1711232,92.2758661 L85.1713858,92.8059474 C78.2125462,96.4436221 69.6894366,99.7680314 54.5656776,101.290443 C37.7942831,102.978712 27.3229368,100.999673 17.9138919,98.6021892 L16.5623153,98.2535221 L11.3809925,96.8827148 L9.53246277,96.4037465 C8.97701459,96.2621521 8.41995054,96.1225911 7.85998045,95.9856995 L7.18653886,95.8227517 L6.48153648,95.6560028 C4.39657823,95.1689993 2.25780878,94.7253324 0.000593286886,94.356868 L0.000593286886,92.1014 C4.81066527,92.8225251 9.03664931,93.8589058 13.1264029,94.9331602 L17.7341547,96.1538293 L19.613059,96.6405382 L20.3021258,96.814756 C29.0432271,99.0071308 38.3191139,100.631359 53.1139543,99.2301789 L53.9054555,99.1528507 C69.7046668,97.5624455 77.6101295,93.9851794 84.8264777,89.9845609 L85.9166043,89.3747564 L87.0077077,88.7562799 L89.6972209,87.2252676 L90.7788899,86.618281 L91.5504643,86.191829 C98.7717708,82.2308633 107.26746,78.4740832 123.304162,76.7738777 L124.521851,76.6501884 L125.002463,76.6043878 Z M125.002357,59.2172278 L125.002357,61.3837914 C123.078557,61.4807735 121.054766,61.6332513 118.916392,61.8484156 C103.02107,63.4478108 95.1512317,67.0663605 87.9047955,71.0983944 L86.8730319,71.6770387 L83.1118395,73.8146147 L82.3993523,74.2143854 L81.3346249,74.8030538 L80.5589362,75.2236531 C73.4412605,79.0468881 64.8785243,82.606266 49.0929164,84.1946217 C31.5919795,85.9555746 20.9815028,83.7072535 11.2572041,81.1723919 L6.09873838,79.8082159 L4.25836332,79.3315646 L3.26095231,79.0802498 C2.18626194,78.8127274 1.10266229,78.5542038 0.000846905973,78.3092652 L0.000846905973,75.9890305 C1.45437111,76.2908792 2.86287717,76.6153923 4.24262508,76.9526997 L5.23625752,77.1988805 C6.11181848,77.4185427 6.97715405,77.6424782 7.83644896,77.8680924 L12.4238739,79.0828565 L14.2944895,79.5672109 L15.8987542,79.9680519 C24.3378895,82.0320778 33.4348507,83.4897999 47.6475973,82.1443241 L48.4356068,82.0673699 C62.6024217,80.641898 70.394283,77.6125334 77.0515685,74.1160263 L77.9127792,73.6580111 L79.2202226,72.9434322 L80.3055401,72.3365776 L81.3918301,71.721093 L84.0694787,70.197487 L85.146376,69.5934368 L86.5718018,68.811313 C93.7336927,64.9430285 102.309563,61.3260124 118.259082,59.7211638 C120.289545,59.5168577 122.227257,59.3665191 124.081596,59.2643343 L125.002357,59.2172278 Z M125.002102,41.0736284 L125.002102,43.2529972 C121.495764,43.234804 117.641762,43.415401 113.319534,43.8548092 C96.6706224,45.5473778 88.827964,49.4784789 81.282584,53.7832208 L77.5221441,55.9424993 L76.8097994,56.3463289 L75.745285,56.9409739 L74.9697515,57.3658435 C67.8534997,61.2278951 59.2924765,64.8234109 43.5100267,66.4278929 C26.0125908,68.2067246 15.4042368,65.9355766 5.68188349,63.3749789 L0.52444979,61.9969526 L0.00064126854,61.859 L0.00064126854,59.448 L0.805565254,59.6546181 L2.26181273,60.0371313 L6.84831995,61.2642287 L8.71856135,61.7535007 L9.74819145,62.0153306 L11.1117735,62.3510992 C19.3306257,64.3322465 28.2970282,65.6736454 42.0649967,64.356779 L42.8528486,64.2790435 C58.5792157,62.680263 66.4482293,59.0841583 73.6313057,55.0624718 L74.7164061,54.4494559 L75.8024788,53.8277224 L78.4795917,52.2886475 L79.5562735,51.6784644 L80.5823823,51.1071933 L81.5789468,50.5647778 C88.6218242,46.7802758 97.1570926,43.2822623 112.662356,41.7059598 C116.902069,41.2749403 120.737313,41.0817017 124.253488,41.0727463 L125.002102,41.0736284 Z M125.001932,24.0688307 L125.001932,26.2909395 C120.122859,25.9586441 114.575746,26.0241507 107.92224,26.7073465 C93.3130285,28.2074508 85.4652719,31.4435427 78.6624165,35.1501725 L78.1343385,35.4399309 L77.0884674,36.0246297 L75.7942142,36.7638472 L72.0230839,38.9509831 L71.3087142,39.3600226 L70.2411735,39.9623393 L69.4634354,40.3926902 L68.925392,40.6855475 C61.8931589,44.4854019 53.3459095,47.9870992 37.9142756,49.5716515 C20.3802953,51.3720772 9.74459269,49.0764419 0.000594625358,46.4852029 L0.000594625358,44.031 L1.14834559,44.3413695 L3.02390378,44.8369538 L4.05646095,45.1021615 L4.96676397,45.3301247 C13.3347548,47.3977228 22.4023418,48.8323743 36.4651377,47.4738176 L37.2552292,47.3950792 C52.4562651,45.8342052 60.3369321,42.3938436 67.3370469,38.49955 L68.1211845,38.0596021 L69.2093697,37.4386775 L70.2985299,36.8089229 L72.9832534,35.249992 L74.0629961,34.6319368 L75.0920219,34.0532955 L75.6131948,33.7650811 L76.4145687,33.3292764 L77.0861884,32.9715859 C83.9648399,29.3454964 92.4363454,26.0532259 107.263193,24.5307742 C113.823104,23.8571889 119.417463,23.7569291 124.360813,24.0309787 L125.001932,24.0688307 Z M104.134227,7.96302003 C106.02632,8.54158773 107.888049,9.14840981 109.719614,9.78132582 L109.569398,9.78884123 C107.529179,9.88555549 105.376074,10.0457262 103.09232,10.2782094 C88.1853859,11.7957163 80.3344998,15.109262 73.4384585,18.8798673 L72.5891129,19.3489454 L72.0701737,19.6396857 C71.7249879,19.8340017 71.3812163,20.0292666 71.0380591,20.2253049 L67.2755872,22.3886469 L66.5628575,22.7932363 L65.4977679,23.3890005 L64.7218154,23.8146695 C57.6017182,27.6839891 49.036069,31.286271 33.2450909,32.8937725 C18.4482576,34.4000713 8.57539512,33.0077662 0,30.9916656 L0,28.606 L0.931451905,28.8339136 C9.12695137,30.8052589 18.0808736,32.1326462 31.7992801,30.818761 L32.5875577,30.7408792 C47.8456087,29.1876291 55.7113017,25.7527364 62.7271962,21.8720407 L63.3826463,21.5069632 L64.4683331,20.8927937 L68.2335522,18.727919 L69.3108158,18.1165876 L70.0792477,17.6870831 C77.3801118,13.6373207 85.9889201,9.79948447 102.434787,8.12531615 C103.008601,8.06690259 103.575011,8.01284811 104.134227,7.96302003 Z M82.492876,0 C83.6730636,0.10522158 84.8471326,0.220808464 86.0153417,0.345852079 L87.1816071,0.474014286 L86.9404695,0.599892163 C86.0482022,1.06465145 85.1772452,1.53796481 84.3151177,2.01712795 L83.2840041,2.59475853 L79.5251811,4.72858983 L78.8131427,5.12766022 L77.7490861,5.71529736 L76.9738861,6.13515979 C69.8606943,9.951697 61.3033523,13.5048394 45.527689,15.0904125 C29.1140793,16.7401041 18.7651444,14.8649734 9.52139602,12.5365162 L8.61556423,12.3061339 C8.31469182,12.2289247 8.01483266,12.1513364 7.71581196,12.0734773 L2.56059597,10.7116911 L0.721380289,10.2358749 L0.000137284984,10.053 L0.000137284984,8.60789355 C0.537229918,8.43180867 1.07691997,8.25800405 1.61906657,8.0864155 C2.52213625,8.31288657 3.412875,8.54303796 4.29721184,8.77496639 L8.88174686,9.98760239 L10.751184,10.4711083 L11.4367788,10.6441796 C20.1338369,12.8221265 29.3629858,14.4356662 44.0832804,13.0437068 L44.8707935,12.9668874 C60.3485582,11.4112553 68.2121498,7.94210242 75.3041188,4.04205799 L76.7206496,3.25314201 L80.482217,1.11779882 L81.5584359,0.514806774 L82.492876,0 Z" id="Shape" fill="url(#linearGradient-1)"></path>
                <polygon id="Star" fill="#23237F" points="62.500753 87.5829392 49.4436969 92.3881857 41.5703145 80.4423049 28.3169364 76.2714763 28.6345921 61.7478818 20.2472319 50.1940928 28.6345921 38.6403039 28.3169364 24.1167093 41.5703145 19.9458807 49.4436969 8 62.500753 12.8052465 75.5578091 8 83.4311916 19.9458807 96.6845697 24.1167093 96.366914 38.6403039 104.754274 50.1940928 96.366914 61.7478818 96.6845697 76.2714763 83.4311916 80.4423049 75.5578091 92.3881857"></polygon>
                <path d="M55.6939034,86.3738428 L57.2328523,87.0864202 C58.2567754,87.5565343 59.2824925,88.0028661 60.383269,88.362252 L58.5327816,89.0437483 C57.9538251,88.8122394 57.3931708,88.5653229 56.8410548,88.3136051 L55.1103104,87.5133809 C52.2552937,86.2015063 49.3843692,85.0750879 44.9082302,85.5054812 L44.1248872,84.3164312 C49.3357104,83.6699627 52.6296313,84.9665005 55.6939034,86.3738428 Z M69.3731884,90.112 L66.7531644,89.1486868 C67.5513967,89.0982155 68.4017667,88.9968686 69.3143558,88.8359545 C74.973708,87.838058 77.6014794,85.5060029 80.1646198,82.9653082 L81.2713027,81.8638572 C83.8651429,79.2991617 86.7566457,76.7655279 92.7430978,75.7099549 C94.1789107,75.4567823 95.4764673,75.344419 96.6652182,75.3408841 L96.6845697,76.2714763 L95.4821563,76.649 C94.6962152,76.7003703 93.8597923,76.8009724 92.9633453,76.9590402 C89.7808526,77.5201995 87.5570249,78.5033749 85.7641647,79.7082434 L83.4311916,80.4423049 L81.3701884,83.569 L80.6983857,84.2344171 C78.1794106,86.6927546 75.2851177,89.0710689 69.5346033,90.0850398 L69.3731884,90.112 Z M55.347768,78.4610396 L53.3518479,77.5406442 C50.1163619,76.0539447 46.860446,74.8054241 41.2709685,75.7909997 C38.3642811,76.3035272 36.2572966,77.1680936 34.5479672,78.2320749 L32.9904475,77.7419085 C34.961858,76.3497994 37.4448464,75.1777275 41.050721,74.5419145 C47.0377974,73.4862314 50.6209607,74.8788495 53.9354409,76.4011061 L55.4743897,77.1136834 L56.285443,77.4791675 C59.2705021,78.7926432 62.4327777,79.7665613 67.5558933,78.8632178 C73.06229,77.8922915 75.6987607,75.6583486 78.1981349,73.1980943 L79.5128401,71.8911205 C82.1066804,69.3264249 84.9981831,66.7927912 90.9846353,65.7372181 C93.0666387,65.3701048 94.8579374,65.2990639 96.4483248,65.4265882 L96.475301,66.70028 C94.9518209,66.5652904 93.2317822,66.6289064 91.2048827,66.9863034 C85.9235911,67.9175376 83.2823503,70.0109548 80.8695726,72.3510747 L80.4577415,72.754484 L79.1433908,74.0622057 C76.5753099,76.5904637 73.6820744,79.0709276 67.7761407,80.112303 C62.0632286,81.1196436 58.5386689,79.8976504 55.347768,78.4610396 L55.347768,78.4610396 Z M53.3241296,68.3681316 L51.5933853,67.5679074 L51.0535519,67.3226718 C47.9889286,65.9493788 44.7914569,64.8874415 39.5125059,65.818263 C33.6688579,66.8486558 31.0574238,69.301909 28.4113115,71.9378544 L28.4516846,70.1074017 L28.88841,69.6949442 C31.2467883,67.5045059 34.1097914,65.4829865 39.2922585,64.5691777 C45.1217802,63.5412758 48.6722458,64.8345126 51.9147117,66.3085028 L53.7159272,67.1409467 C56.9532856,68.6273159 60.2085774,69.8759467 65.7974307,68.890481 C70.9979165,67.9734951 73.6384992,65.9299295 76.0213719,63.6331267 L76.4396723,63.2253575 L77.7543776,61.9183838 C80.3482178,59.3536882 83.2397206,56.8200544 89.2261727,55.7644814 C93.9829578,54.9257319 97.2222864,55.6324585 100.015039,56.7217842 L99.2391328,57.790313 C96.6523975,56.8168563 93.7368801,56.2570428 89.4464202,57.0135667 C84.0142345,57.9714076 81.3751148,60.1587906 78.9048037,62.5795025 L77.3849283,64.089469 C74.8168474,66.617727 71.9236119,69.0981908 66.0176782,70.1395663 C60.146074,71.1748885 56.586086,69.855305 53.3241296,68.3681316 Z M51.5656671,58.3953949 L49.8349228,57.5951707 C46.5994368,56.1084713 43.3435209,54.8599506 37.7540434,55.8455263 C32.8256491,56.7145352 30.1962755,58.5956013 27.9061803,60.7447729 L27.1505309,59.7031061 L27.5846016,59.3082696 C29.8603003,57.2801378 32.6795723,55.4523716 37.5337959,54.596441 C43.3633176,53.568539 46.9137833,54.8617758 50.1562492,56.335766 L51.9574646,57.1682099 L52.4975875,57.4133945 C55.5637245,58.7864206 58.7606067,59.8484618 64.0389682,58.9177443 C69.6983203,57.9198478 72.3260918,55.5877926 74.8892321,53.0470979 L75.995915,51.945647 L76.6171877,51.3395119 C79.0655982,48.9901163 81.9538727,46.763983 87.4677102,45.7917447 C93.4547865,44.7360616 97.0379498,46.1286797 100.35243,47.6509363 L101.891379,48.3635136 C102.621993,48.6989605 103.35352,49.0222988 104.112578,49.3105814 L104.754274,50.1940928 L104.350167,50.7512108 C103.347306,50.4093707 102.41179,50.0065878 101.499581,49.5906986 L99.768837,48.7904744 C96.533351,47.3037749 93.2774351,46.0552542 87.6879576,47.0408299 C82.406666,47.9720641 79.7654252,50.0654813 77.3526474,52.4056013 L76.9408164,52.8090106 L75.6264657,54.1167323 C73.0583848,56.6449902 70.1651493,59.1254541 64.2592156,60.1668296 C58.3876115,61.2021518 54.8276234,59.8825683 51.5656671,58.3953949 Z M49.8072045,48.4226581 L48.0764602,47.6224339 C44.8409742,46.1357345 41.5850583,44.8872138 35.9955808,45.8727895 C30.4125011,46.8572371 27.7798128,49.1404834 25.2484396,51.6409701 L24.3372651,52.5492989 C23.882443,53.0019977 23.4217366,53.4555111 22.9397391,53.9018633 L22.1831298,52.8609163 C22.597637,52.4721784 23.0009226,52.0746118 23.4045945,51.6726203 L24.3035382,50.7776066 C26.8973785,48.212911 29.7888812,45.6792773 35.7753334,44.6237043 C41.7624097,43.5680212 45.345573,44.9606393 48.6600532,46.4828959 L50.199002,47.1954732 C53.4363605,48.6818424 56.6916523,49.9304732 62.2805056,48.9450076 C67.6339468,48.0010514 70.274688,45.8632718 72.7140901,43.4843592 L74.2374524,41.9729103 C76.8312927,39.4082147 79.7227955,36.874581 85.7092476,35.8190079 C90.4155572,34.9891586 93.6364438,35.6721605 96.4090577,36.7417641 L96.3782305,38.1026632 C93.6232999,36.9765715 90.5862719,36.2469778 85.929495,37.0680932 C80.0446272,38.1057542 77.4377327,40.5864194 74.772299,43.2434916 L74.2711793,43.7446026 C71.596128,46.4071656 68.7175254,49.0979081 62.500753,50.1940928 C56.6291489,51.2294151 53.0691609,49.9098315 49.8072045,48.4226581 Z M48.3139178,38.5700926 L46.3179976,37.6496972 C43.0825117,36.1629978 39.8265958,34.9144771 34.2371182,35.9000528 C31.9237529,36.3079615 30.1169353,36.9388589 28.6139835,37.7158032 L28.5829538,36.3176025 C30.0751111,35.6131941 31.8416872,35.0345111 34.0168708,34.6509675 C40.0039471,33.5952844 43.5871104,34.9879025 46.9015907,36.5101591 L48.4405395,37.2227365 C51.677898,38.7091057 54.9331897,39.9577364 60.5220431,38.9722708 C65.8754843,38.0283147 68.5162254,35.890535 70.9556275,33.5116224 L71.5800462,32.8951872 L72.4789899,32.0001735 C75.0728302,29.435478 77.9643329,26.9018442 83.9507851,25.8462712 C89.8013541,24.814658 93.3563804,26.1209747 96.6083469,27.6015686 L96.5771884,28.996 L96.2519119,28.8450009 C93.0164259,27.3583014 89.76051,26.1097808 84.1710325,27.0953565 C78.5879527,28.0798041 75.9552645,30.3630504 73.4238913,32.8635371 L72.1095406,34.1712588 C69.5414597,36.6995167 66.6482242,39.1799806 60.7422905,40.2213561 C55.0293784,41.2286966 51.5048186,40.0067035 48.3139178,38.5700926 L48.3139178,38.5700926 Z M46.2902794,28.4771847 L44.5595351,27.6769605 L44.0197016,27.4317248 C40.9550783,26.0584319 37.7576067,24.9964946 32.4786557,25.9273161 C30.8974179,26.2061309 29.552841,26.5891268 28.3801996,27.0517329 L28.3502714,25.7078405 C29.4925666,25.2891392 30.7812711,24.9386899 32.2584083,24.6782308 C38.2454846,23.6225477 41.8286479,25.0151658 45.1431281,26.5374224 L46.6820769,27.2499997 C49.9194354,28.736369 53.1747271,29.9849997 58.7635805,28.9995341 C63.9640663,28.0825481 66.6046489,26.0389826 68.9875217,23.7421797 L69.4058221,23.3344106 L70.7205273,22.0274368 C73.1230263,19.6519326 75.7808919,17.3030765 80.9169066,16.130684 L81.6644608,17.2658045 C76.5887834,18.3164634 74.0809782,20.5047242 71.6654288,22.8908003 L70.3510781,24.198522 C67.7829972,26.72678 64.8897616,29.2072439 58.9838279,30.2486193 C53.1122238,31.2839416 49.5522357,29.9643581 46.2902794,28.4771847 Z M44.5318169,18.5044479 L42.9891884,17.792 L43.7011884,16.711 L44.9236144,17.277263 L45.4637372,17.5224476 C48.5298743,18.8954736 51.7267564,19.9575149 57.0051179,19.0267973 C62.6644701,18.0289009 65.2922415,15.6968457 67.8553819,13.156151 L68.9620648,12.0547001 C69.9393724,11.0883736 70.9589372,10.1264568 72.170383,9.24634802 L75.5578091,8 L75.9144857,8.54242335 C73.2059713,9.74133428 71.4481279,11.3864423 69.7018855,13.1212605 L68.9957917,13.8263923 C66.3207403,16.4889554 63.4421377,19.1796979 57.2253654,20.2758826 C51.3537612,21.3112048 47.7937732,19.9916213 44.5318169,18.5044479 Z M47.9150869,10.31874 L48.6721697,9.17025826 C49.9738364,9.39470351 51.4137293,9.47530553 53.0774956,9.33822602 L55.6243071,10.2749218 L55.4669028,10.3031459 C52.590583,10.8103187 50.2689867,10.7523797 48.2654068,10.386459 L47.9150869,10.31874 Z" id="Shape" fill="url(#linearGradient-2)"></path>
                <path d="M38.3049218,34.3409566 C45.6523254,22.9529315 59.4287071,18.5069218 71.5213088,22.5629307 C70.4268518,24.2009343 69.8528359,26.1509386 69.9293713,28.178943 C69.9905997,29.2943455 70.2355131,30.3863479 70.6181904,31.4003501 C61.602314,27.4067413 50.810815,30.4643481 45.2237269,39.1223671 C40.1188121,46.9847844 40.8841666,57.0468066 46.4789083,63.9732218 L46.4789083,64.0044219 C48.8515074,66.9372284 49.1576492,71.2038378 47.0146565,74.5344451 C49.0811137,71.2818379 52.9844219,69.8934349 56.4285173,70.8138369 L56.4820921,70.8138369 C64.9775275,73.4034426 74.4679237,70.1664355 79.5957991,62.233818 C84.7466352,54.2544005 83.874131,44.036378 78.1033578,37.0943627 C78.3941925,37.1255627 78.6773737,37.1411628 78.9835155,37.1411628 C79.0906651,37.1411628 79.2131219,37.1411628 79.3202715,37.1255627 C81.769406,37.0475626 84.0118948,35.9867602 85.6727142,34.1615562 L86.0936592,33.6623551 L86.1013127,33.6467551 C92.7369365,43.2797763 93.3109524,56.4462053 86.5758325,66.8748282 C77.7742553,80.4468581 59.8419985,84.2688665 46.4942154,75.2910468 C33.1770464,66.321027 29.4650769,47.9909867 38.3049218,34.3409566 Z M82.9360146,26.383661 C86.2499461,26.5911562 86.7869258,27.359657 86.7869258,27.359657 L86.7872655,27.6710402 C86.77598,28.4233132 86.6731813,30.36741 85.9431006,31.5864113 C85.0225641,33.1234128 83.1047797,35.3828051 80.3431701,35.9514957 C78.1632278,36.3943388 75.9737256,35.4820044 75.1481022,35.0780354 L74.8046086,34.8986496 L74.7914613,34.6301622 C74.7695491,33.8881912 74.8046086,31.7574027 75.8018565,30.1339448 C77.0292386,28.1358428 79.6374254,26.1761658 82.9360146,26.383661 Z M77.2313683,20.0919696 C78.9870168,21.8890372 79.2164317,25.6289798 79.2164317,25.6289798 L79.0519272,25.6743563 C78.5392364,25.8361268 76.9135431,26.5016331 75.3928501,28.7611818 C74.0535631,30.751185 73.8544799,32.7411883 73.8446969,33.6715039 L73.8452525,33.8603666 C73.8491174,34.0877771 73.8634174,34.2152648 73.8634174,34.2152648 L73.742391,34.1461128 C73.3104201,33.8810654 71.8357605,32.8160918 71.1869102,30.3039081 C70.4221939,27.3431202 71.4469138,24.2888337 73.1751727,22.35653 C74.9091124,20.403523 76.8710187,20.1069736 77.1905368,20.0917687 L77.2313683,20.0919696 Z" id="Shape" fill="url(#linearGradient-3)" fill-rule="nonzero"></path>
                <path d="M84.2382691,109.396875 L84.188093,109.393634 C83.9917102,109.387152 83.8176545,109.370946 83.6659259,109.345018 C83.4636212,109.310447 83.2933267,109.259231 83.1550424,109.191369 C83.0167582,109.123507 82.9060027,109.03708 82.8227761,108.932086 C82.7395495,108.827092 82.6761692,108.704173 82.6326353,108.563328 C82.5891013,108.422483 82.5602921,108.263072 82.5462076,108.085095 C82.5321231,107.907118 82.5250808,107.710575 82.5250808,107.495466 L82.5250808,103.857822 L83.4815469,103.857822 L83.4815469,107.495466 C83.4815469,107.700332 83.4885892,107.864224 83.5026737,107.987144 C83.5167582,108.110063 83.5538901,108.205454 83.6140693,108.273315 C83.6742486,108.341177 83.7651577,108.385991 83.8867966,108.407758 C83.9780258,108.424083 84.0955434,108.434287 84.2393494,108.438368 L84.7337876,108.440409 C84.884876,108.440409 85.0071551,108.427605 85.100625,108.401996 C85.1940949,108.376388 85.2670783,108.338616 85.3195751,108.28868 C85.3720719,108.238744 85.4072831,108.177925 85.4252089,108.106222 C85.4431346,108.034519 85.4520975,107.952573 85.4520975,107.860383 L85.4520975,106.742585 L86.4085635,106.742585 L86.4085635,107.841177 C86.4085635,108.048603 86.4584995,108.199692 86.5583715,108.294442 C86.6582434,108.389192 86.8157338,108.437848 87.0308427,108.440409 C87.069255,108.437848 87.1159899,108.430165 87.1710475,108.417361 C87.2261052,108.404557 87.2798824,108.378309 87.3323792,108.338616 C87.384876,108.298923 87.4296903,108.241305 87.4668222,108.165761 C87.5039541,108.090217 87.52252,107.988424 87.52252,107.860383 L87.52252,106.742585 L88.4751449,106.742585 L88.4751449,107.841177 C88.4751449,108.051164 88.5250808,108.203533 88.6249528,108.298283 C88.7248248,108.393034 88.8874368,108.440409 89.1127889,108.440409 C89.1742486,108.440409 89.235068,108.430806 89.2952473,108.4116 C89.3554265,108.392393 89.409844,108.360383 89.4584995,108.315569 C89.5071551,108.270754 89.5468478,108.212496 89.5775776,108.140793 C89.6083075,108.06909 89.6262332,107.980742 89.6313548,107.875748 L89.6313548,106.742585 L90.5878209,106.742585 L90.5878209,107.879589 C90.5929425,108.076772 90.6531218,108.219538 90.7683587,108.307886 C90.8835956,108.396235 91.0602921,108.440409 91.2984483,108.440409 L92.5698952,108.440409 L92.6492806,108.434433 C92.6654991,108.432442 92.6832114,108.429952 92.7024176,108.426964 C92.760036,108.418002 92.8176545,108.394314 92.8752729,108.355902 C92.9328913,108.317489 92.9834675,108.259231 93.0270014,108.181126 C93.0705354,108.103021 93.0923023,107.996107 93.0923023,107.860383 L93.0863271,107.731489 L93.078858,107.654877 C93.0698952,107.574212 93.0577313,107.487784 93.0423664,107.395594 L92.9905098,107.113264 L92.9079233,106.717617 L92.8387812,106.44297 L93.7414701,106.170242 L93.7914061,106.368492 L93.8610283,106.69313 L93.8931986,106.861664 C93.9149656,106.979461 93.9354522,107.097899 93.9546583,107.216977 C93.9738644,107.336055 93.9892294,107.451932 94.000753,107.564608 C94.0122767,107.677285 94.0180386,107.775876 94.0180386,107.860383 C94.0180386,108.124148 93.9745046,108.352701 93.8874368,108.546043 C93.8003689,108.739384 93.6864125,108.898795 93.5455674,109.024276 C93.4047223,109.149756 93.2465917,109.243226 93.0711756,109.304685 C92.8957595,109.366145 92.7197031,109.396875 92.5430066,109.396875 L91.2984483,109.396875 C91.0346839,109.396875 90.8054906,109.368066 90.6108683,109.310447 C90.416246,109.252829 90.2485123,109.158719 90.1076673,109.028117 C89.9770655,109.148475 89.8240565,109.240025 89.6486404,109.302765 C89.4732242,109.365505 89.2946071,109.396875 89.1127889,109.396875 C88.8720719,109.396875 88.6614445,109.367425 88.4809067,109.308527 C88.3003689,109.249628 88.1396775,109.154877 87.9988324,109.024276 C87.8656698,109.142073 87.7165021,109.232982 87.5513292,109.297003 C87.3861564,109.361023 87.2190629,109.394314 87.0500488,109.396875 L87.0231602,109.396875 C86.7926865,109.396875 86.5878209,109.365505 86.4085635,109.302765 C86.2293062,109.240025 86.0730962,109.152317 85.9399336,109.03964 C85.6403177,109.277797 85.2382691,109.396875 84.7337876,109.396875 L84.2382691,109.396875 Z M87.2382691,104.499308 L87.891278,105.152317 L87.2382691,105.813008 L86.5852601,105.159999 L87.2382691,104.499308 Z M88.8823151,104.483943 L89.5391653,105.136952 L88.8938388,105.789961 L88.2216237,105.144634 L88.8823151,104.483943 Z M92.9924304,103.926964 L93.6992166,104.633751 L93.0001128,105.332854 L92.3010091,104.626068 L92.9924304,103.926964 Z M88.0833395,103.446811 L88.6902537,104.053725 L88.075657,104.668322 L87.4687428,104.061407 L88.0833395,103.446811 Z M78.3573472,111.463456 C78.1524816,111.463456 77.9552985,111.439128 77.7657979,111.390473 C77.5762972,111.341817 77.3976801,111.272675 77.2299464,111.183046 C77.0622127,111.093418 76.9072831,110.983302 76.7651577,110.852701 C76.6230322,110.722099 76.4994726,110.574852 76.394479,110.410959 C76.2715597,110.211215 76.1768094,109.989064 76.1102281,109.744506 C76.0436468,109.499948 76.0103561,109.244506 76.0103561,108.978181 C76.0103561,108.809167 76.0205994,108.645274 76.041086,108.486503 C76.0615725,108.327733 76.094223,108.165121 76.1390373,107.998667 C76.1838516,107.832214 76.2427505,107.658078 76.3157338,107.47626 C76.3887172,107.294442 76.4777057,107.094698 76.5826993,106.877028 L77.4469758,107.28804 C77.3547863,107.47498 77.2779618,107.642713 77.2165021,107.791241 C77.1550424,107.939769 77.1051064,108.079973 77.0666941,108.211856 C77.0282819,108.343738 77.000753,108.470498 76.9841077,108.592137 C76.9674624,108.713776 76.9591397,108.841177 76.9591397,108.97434 C76.9591397,109.148475 76.9809067,109.315569 77.0244406,109.47562 C77.0679746,109.635671 77.1281538,109.779717 77.2049784,109.907758 C77.3278977,110.089576 77.4898696,110.234903 77.6908939,110.343738 C77.8919182,110.452573 78.1140693,110.50699 78.3573472,110.50699 L79.1371167,110.50699 C79.4085635,110.50699 79.6294342,110.478821 79.7997287,110.422483 C79.9700232,110.366145 80.1025456,110.286119 80.1972959,110.182406 C80.2920463,110.078693 80.356707,109.953853 80.391278,109.807886 C80.4258491,109.66192 80.4431346,109.500588 80.4431346,109.323891 L80.4431346,106.738744 L81.3996007,106.738744 L81.3996007,109.323891 C81.3996007,110.03836 81.2107402,110.573571 80.8330194,110.929525 C80.4552985,111.285479 79.8899976,111.463456 79.1371167,111.463456 L78.3573472,111.463456 Z M78.2805226,106.439128 L78.9719438,105.740025 L79.67873,106.446811 L78.9796263,107.145914 L78.2805226,106.439128 Z M61.3214957,109.396875 L61.2636372,109.393634 C61.0672543,109.387152 60.8931986,109.370946 60.7414701,109.345018 C60.5391653,109.310447 60.3688708,109.259231 60.2305866,109.191369 C60.0923023,109.123507 59.9815469,109.03708 59.8983203,108.932086 C59.8150936,108.827092 59.7517134,108.704173 59.7081794,108.563328 C59.6646455,108.422483 59.6358363,108.263072 59.6217518,108.085095 C59.6076673,107.907118 59.600625,107.710575 59.600625,107.495466 L59.600625,103.857822 L60.5570911,103.857822 L60.5570911,107.495466 C60.5570911,107.700332 60.5641333,107.864224 60.5782178,107.987144 C60.5923023,108.110063 60.6294342,108.205454 60.6896135,108.273315 C60.7497927,108.341177 60.8407018,108.385991 60.9623408,108.407758 C61.05357,108.424083 61.1710876,108.434287 61.3148936,108.438368 L61.7939669,108.440409 C61.8503049,108.440409 61.8996007,108.423763 61.9418542,108.390473 C61.9841077,108.357182 62.02252,108.310447 62.0570911,108.250268 C62.0916621,108.190089 62.1236724,108.117105 62.1531218,108.031318 L62.2433907,107.745146 C62.2946071,107.560767 62.3560667,107.370626 62.4277697,107.174724 C62.4994726,106.978821 62.5948632,106.800204 62.7139413,106.638872 C62.8330194,106.477541 62.9834675,106.345018 63.1652857,106.241305 C63.3471039,106.137592 63.572456,106.085735 63.841342,106.085735 C64.1051064,106.085735 64.33494,106.13311 64.5308427,106.227861 C64.7267454,106.322611 64.891278,106.450652 65.0244406,106.611984 C65.1576032,106.773315 65.2581154,106.960255 65.3259771,107.172803 C65.3768734,107.332214 65.410124,107.497387 65.425729,107.668322 L65.4354522,107.841177 C65.4354522,107.984583 65.4636212,108.096619 65.5199592,108.177285 C65.5762972,108.25795 65.6403177,108.317489 65.7120207,108.355902 C65.7837236,108.394314 65.8541461,108.418002 65.9232883,108.426964 L66.0654137,108.440409 L66.4994726,108.440409 C66.6556826,108.440409 66.7798824,108.426324 66.8720719,108.398155 C66.9642614,108.369986 67.0340437,108.332854 67.0814189,108.28676 C67.128794,108.240665 67.1601641,108.188808 67.175529,108.13119 C67.1908939,108.073571 67.1985764,108.015313 67.1985764,107.956414 L67.1985764,106.742585 L68.1512012,106.742585 L68.1512012,107.956414 C68.1512012,108.002509 68.1601641,108.047323 68.1780898,108.090857 C68.1960155,108.134391 68.2190629,108.173443 68.2472319,108.208014 C68.2754009,108.242585 68.3074112,108.270754 68.3432627,108.292521 C68.3791141,108.314288 68.416246,108.327733 68.4546583,108.332854 L68.5391653,108.19457 C68.6415981,108.025556 68.7497927,107.855261 68.8637492,107.683687 C68.9777057,107.512112 69.097424,107.346299 69.2229041,107.186247 C69.3483843,107.026196 69.4815469,106.876388 69.622392,106.736824 C69.763237,106.597259 69.913045,106.47562 70.0718158,106.371907 C70.2305866,106.268194 70.3983203,106.186888 70.5750168,106.127989 C70.7517134,106.06909 70.941214,106.03964 71.1435187,106.03964 C71.3432627,106.03964 71.5417262,106.067169 71.7389093,106.122227 C71.9360924,106.177285 72.1121487,106.270114 72.2670783,106.400716 C72.4220079,106.531318 72.547488,106.704813 72.6435187,106.921203 C72.7395495,107.137592 72.7875648,107.408398 72.7875648,107.733623 C72.7875648,108.040921 72.7357082,108.300204 72.631995,108.511471 C72.5282819,108.722739 72.3951192,108.893674 72.2325072,109.024276 C72.0698952,109.154877 71.888077,109.249628 71.6870527,109.308527 C71.4860283,109.367425 71.2894854,109.396875 71.097424,109.396875 L68.9002409,109.396875 C68.8080514,109.396875 68.7056186,109.394954 68.5929425,109.391113 C68.4802665,109.387272 68.3675904,109.374468 68.2549144,109.352701 C68.1422383,109.330934 68.0353241,109.297003 67.9341717,109.250908 C67.8330194,109.204813 67.7465917,109.138232 67.6748888,109.051164 C67.3957595,109.273955 67.0129169,109.389192 66.5263612,109.396875 L66.0231602,109.396875 L65.8885038,109.388125 C65.773836,109.376459 65.6657125,109.353127 65.5641333,109.31813 C65.4117646,109.265633 65.2728401,109.198411 65.14736,109.116465 C65.0705354,109.224019 64.9860283,109.309167 64.8938388,109.371907 C64.8016493,109.434647 64.7094598,109.481382 64.6172703,109.512112 C64.5250808,109.542842 64.4367326,109.562048 64.3522255,109.56973 C64.2677185,109.577413 64.1947351,109.581254 64.1332755,109.581254 C64.0052345,109.581254 63.8835956,109.56909 63.7683587,109.544762 C63.6531218,109.520434 63.5359643,109.485863 63.4168862,109.441049 C63.3375008,109.411173 63.2561237,109.376744 63.1727548,109.337763 L63.0462076,109.275876 C62.9181666,109.210575 62.778602,109.136952 62.6275136,109.055005 C62.5122767,109.177925 62.3887172,109.265633 62.256835,109.31813 C62.1249528,109.370626 61.9706634,109.396875 61.7939669,109.396875 L61.3214957,109.396875 Z M63.841342,107.03836 C63.7081794,107.03836 63.5993446,107.078053 63.5148376,107.157438 C63.4303305,107.236824 63.3592678,107.335415 63.3016493,107.453213 C63.263237,107.531745 63.2288082,107.614544 63.198363,107.701612 L63.1556826,107.835415 C63.1159899,107.972419 63.0730962,108.097259 63.0270014,108.209935 C63.1217518,108.263712 63.2222639,108.31813 63.3285379,108.373187 C63.4348119,108.428245 63.5391653,108.477541 63.6415981,108.521075 C63.7440309,108.564608 63.8407018,108.60046 63.9316109,108.628629 C64.02252,108.656798 64.1025456,108.670882 64.1716877,108.670882 C64.1947351,108.670882 64.2312268,108.666401 64.2811628,108.657438 C64.3310988,108.648475 64.3816749,108.620946 64.4328913,108.574852 C64.4841077,108.528757 64.5295623,108.457694 64.569255,108.361664 C64.6089477,108.265633 64.628794,108.13055 64.628794,107.956414 C64.628794,107.889833 64.6166301,107.804685 64.5923023,107.700972 C64.5679746,107.597259 64.525721,107.496107 64.4655418,107.397515 C64.4053625,107.298923 64.3246967,107.214416 64.2235443,107.143994 C64.122392,107.073571 63.9949912,107.03836 63.841342,107.03836 Z M71.1435187,106.992265 C70.9898696,106.992265 70.83494,107.031958 70.67873,107.111343 C70.52252,107.190729 70.3682306,107.297003 70.2158619,107.430165 C70.0634931,107.563328 69.9168862,107.716977 69.7760411,107.891113 C69.6351961,108.065249 69.5058747,108.248347 69.388077,108.440409 L71.097424,108.440409 C71.1921743,108.440409 71.2894854,108.428245 71.3893574,108.403917 C71.4892294,108.379589 71.5801385,108.339897 71.6620847,108.284839 C71.7440309,108.229781 71.8118926,108.157438 71.8656698,108.067809 C71.919447,107.978181 71.9463356,107.866785 71.9463356,107.733623 C71.9463356,107.590217 71.9239285,107.470498 71.8791141,107.374468 C71.8342998,107.278437 71.7747607,107.202253 71.700497,107.145914 C71.6262332,107.089576 71.541086,107.049884 71.4450552,107.026836 C71.3490245,107.003789 71.2485123,106.992265 71.1435187,106.992265 Z M71.0705354,103.884711 L71.7773216,104.591497 L71.0782178,105.290601 L70.3791141,104.583815 L71.0705354,103.884711 Z M56.1243126,109.396875 C56.0372447,109.396875 55.944415,109.391113 55.8458235,109.379589 C55.7472319,109.368066 55.6486404,109.348859 55.5500488,109.321971 C55.4514573,109.295082 55.3560667,109.258591 55.2638772,109.212496 C55.1716877,109.166401 55.0897415,109.110063 55.0180386,109.043482 C54.7389093,109.276516 54.359908,109.394314 53.8810347,109.396875 L49.4482562,109.396875 C49.2587556,109.396875 49.0794982,109.364865 48.9104842,109.300844 C48.7414701,109.236824 48.5916621,109.143354 48.4610603,109.020434 C48.409844,108.971779 48.356707,108.91288 48.3016493,108.843738 C48.2465917,108.774596 48.1972959,108.692649 48.153762,108.597899 C48.1102281,108.503149 48.0743766,108.396235 48.0462076,108.277156 C48.0180386,108.158078 48.0039541,108.024276 48.0039541,107.875748 C48.0039541,107.747707 48.0167582,107.608783 48.0423664,107.458975 C48.0679746,107.309167 48.0967838,107.167681 48.128794,107.034519 L48.1902537,106.792095 L48.2728401,106.50827 L48.7299464,106.654237 L49.1832114,106.796363 C49.1601641,106.865505 49.1358363,106.948091 49.1102281,107.044122 C49.0846199,107.140153 49.0602921,107.239384 49.0372447,107.341817 C49.0141974,107.44425 48.9949912,107.542842 48.9796263,107.637592 C48.9642614,107.732342 48.9565789,107.814288 48.9565789,107.88343 C48.9565789,108.00635 48.9738644,108.105582 49.0084355,108.181126 C49.0430066,108.25667 49.0852601,108.314288 49.1351961,108.353981 C49.1851321,108.393674 49.2395495,108.419922 49.2984483,108.432726 C49.3573472,108.44553 49.409844,108.451932 49.4559387,108.451932 L53.8541461,108.451932 C53.9949912,108.451932 54.1153497,108.438488 54.2152217,108.4116 C54.3150936,108.384711 54.3893574,108.345658 54.438013,108.294442 C54.4969118,108.227861 54.5263612,108.13183 54.5263612,108.00635 L54.5263612,106.742585 L55.4789861,106.742585 L55.4789861,107.868066 C55.4789861,107.957694 55.4924304,108.033879 55.519319,108.096619 C55.5462076,108.159359 55.5807787,108.211856 55.6230322,108.254109 C55.6652857,108.296363 55.7120207,108.329653 55.763237,108.353981 C55.8144534,108.378309 55.8643894,108.396875 55.913045,108.409679 C55.9617006,108.422483 56.0045943,108.430806 56.0417262,108.434647 L56.1243126,108.440409 L57.2497927,108.440409 L57.3291781,108.434433 C57.3453967,108.432442 57.363109,108.429952 57.3823151,108.426964 C57.4399336,108.418002 57.497552,108.394314 57.5551705,108.355902 C57.6127889,108.317489 57.6633651,108.259231 57.706899,108.181126 C57.7504329,108.103021 57.7721999,107.996107 57.7721999,107.860383 L57.7662247,107.731489 L57.7587556,107.654877 C57.7497927,107.574212 57.7376288,107.487784 57.7222639,107.395594 L57.6704073,107.113264 L57.5878209,106.717617 L57.5186788,106.44297 L58.4213676,106.170242 L58.4540181,106.297003 C58.4706634,106.363584 58.4892294,106.44489 58.5097159,106.540921 L58.5730962,106.861664 L58.6345559,107.216977 C58.653762,107.336055 58.6691269,107.451932 58.6806506,107.564608 C58.6921743,107.677285 58.6979361,107.775876 58.6979361,107.860383 C58.6979361,108.124148 58.6544022,108.352701 58.5673344,108.546043 C58.4802665,108.739384 58.36631,108.898795 58.225465,109.024276 C58.0846199,109.149756 57.9264893,109.243226 57.7510732,109.304685 C57.575657,109.366145 57.3996007,109.396875 57.2229041,109.396875 L56.1243126,109.396875 Z M50.8925584,105.110063 L51.5532498,105.770754 L50.9040821,106.423763 L50.2587556,105.770754 L50.8925584,105.110063 Z M52.5058747,105.106222 L53.1665661,105.766913 L52.5135571,106.419922 L51.8682306,105.766913 L52.5058747,105.106222 Z M57.672328,103.926964 L58.3791141,104.633751 L57.6800104,105.332854 L56.9809067,104.626068 L57.672328,103.926964 Z M43.5058747,106.44297 L44.4085635,106.170242 L44.4770655,106.449798 L44.5281218,106.69313 L44.5602921,106.861664 C44.5820591,106.979461 44.6025456,107.097899 44.6217518,107.216977 C44.6409579,107.336055 44.6563228,107.451932 44.6678465,107.564608 C44.6793702,107.677285 44.6851321,107.775876 44.6851321,107.860383 C44.6851321,108.124148 44.6415981,108.352701 44.5545303,108.546043 C44.4674624,108.739384 44.3535059,108.898795 44.2126609,109.024276 C44.0718158,109.149756 43.9136852,109.243226 43.7382691,109.304685 C43.5628529,109.366145 43.3867966,109.396875 43.2101,109.396875 L41.5545303,109.396875 C41.4572191,109.396875 41.3579874,109.390473 41.2645175,109.377669 C41.1710475,109.364865 41.0794982,109.329013 40.9898696,109.270114 C40.9591397,109.60046 40.8835956,109.900076 40.763237,110.168962 C40.6428785,110.437848 40.4821871,110.667681 40.2811628,110.858462 C40.0801385,111.049244 39.8400616,111.197131 39.5609323,111.302124 C39.281803,111.407118 38.9681026,111.459615 38.6198312,111.459615 L38.1396775,111.459615 L38.1396775,110.503149 L38.6198312,110.503149 C38.8656698,110.503149 39.0782178,110.477541 39.2574752,110.426324 C39.4367326,110.375108 39.5839797,110.293162 39.6992166,110.180486 C39.8144534,110.067809 39.9002409,109.921203 39.9565789,109.740665 C40.0129169,109.560127 40.041086,109.340537 40.041086,109.081894 L40.041086,106.742585 L40.997552,106.742585 L40.997552,107.891113 C40.997552,108.008911 41.02252,108.103661 41.072456,108.175364 C41.122392,108.247067 41.1800104,108.302765 41.2453113,108.342457 C41.3106122,108.38215 41.3739925,108.408398 41.4354522,108.421203 L41.5327633,108.438275 C41.5447138,108.439697 41.5545303,108.440409 41.5622127,108.440409 L43.2369886,108.440409 L43.316374,108.434433 C43.3325926,108.432442 43.3503049,108.429952 43.3695111,108.426964 C43.4271295,108.418002 43.4847479,108.394314 43.5423664,108.355902 C43.5999848,108.317489 43.650561,108.259231 43.6940949,108.181126 C43.7376288,108.103021 43.7593958,107.996107 43.7593958,107.860383 L43.7534206,107.731489 L43.7459515,107.654877 C43.7369886,107.574212 43.7248248,107.487784 43.7094598,107.395594 L43.6576032,107.113264 L43.5750168,106.717617 L43.5058747,106.44297 Z M34.8515853,109.980742 L35.5583715,110.687528 L34.8592678,111.386632 L34.1601641,110.679845 L34.8515853,109.980742 Z M37.4981922,106.742585 L38.4047223,106.504429 L38.4436148,106.692649 L38.4757851,106.861664 C38.497552,106.979461 38.5180386,107.097899 38.5372447,107.216977 C38.5564509,107.336055 38.5718158,107.451932 38.5833395,107.564608 L38.5987044,107.771181 C38.5999848,107.80248 38.600625,107.832214 38.600625,107.860383 C38.600625,108.124148 38.5570911,108.352701 38.4700232,108.546043 C38.3829554,108.739384 38.2689989,108.898795 38.1281538,109.024276 C37.9873087,109.149756 37.8291781,109.243226 37.653762,109.304685 C37.4783459,109.366145 37.3022895,109.396875 37.125593,109.396875 L32.5660539,109.396875 C32.3765533,109.396875 32.1972959,109.364865 32.0282819,109.300844 C31.8592678,109.236824 31.7094598,109.143354 31.578858,109.020434 C31.5276417,108.971779 31.4745046,108.91288 31.419447,108.843738 C31.3643894,108.774596 31.3150936,108.692649 31.2715597,108.597899 C31.2280258,108.503149 31.1921743,108.396235 31.1640053,108.277156 C31.1358363,108.158078 31.1217518,108.024276 31.1217518,107.875748 C31.1217518,107.747707 31.1345559,107.608783 31.1601641,107.458975 C31.1857723,107.309167 31.2145815,107.167681 31.2465917,107.034519 C31.278602,106.901356 31.3086916,106.786119 31.3368606,106.688808 L31.3906378,106.50827 L31.8477441,106.654237 L32.3010091,106.796363 C32.2779618,106.865505 32.253634,106.948091 32.2280258,107.044122 C32.2024176,107.140153 32.1780898,107.238744 32.1550424,107.339897 C32.131995,107.441049 32.1127889,107.539 32.097424,107.633751 C32.0820591,107.728501 32.0743766,107.810447 32.0743766,107.879589 C32.0743766,108.002509 32.0916621,108.10174 32.1262332,108.177285 C32.1608043,108.252829 32.2030578,108.310447 32.2529938,108.35014 C32.3029297,108.389833 32.3522255,108.414801 32.4008811,108.425044 C32.4495367,108.435287 32.5071551,108.440409 32.5737364,108.440409 L37.1524816,108.440409 L37.231867,108.434433 C37.2480855,108.432442 37.2657979,108.429952 37.285004,108.426964 C37.3426224,108.418002 37.4002409,108.394314 37.4578593,108.355902 C37.5154778,108.317489 37.5660539,108.259231 37.6095879,108.181126 C37.6531218,108.103021 37.6748888,107.996107 37.6748888,107.860383 C37.6748888,107.804045 37.6704073,107.735543 37.6614445,107.654877 L37.6455994,107.529557 L37.600465,107.25587 L37.4981922,106.742585 Z M42.4264893,104.111343 L43.0871807,104.772035 L42.438013,105.425044 L41.7926865,104.772035 L42.4264893,104.111343 Z M44.0398055,104.107502 L44.700497,104.768194 L44.047488,105.421203 L43.4021615,104.768194 L44.0398055,104.107502 Z" id="Shape" fill="url(#linearGradient-4)" fill-rule="nonzero"></path>
                <path d="M95.2534699,124.395635 L95.8188988,124.961064 L95.2596158,125.520347 L94.7003329,124.954918 L95.2534699,124.395635 Z M94.2670422,123.885519 L94.2269014,123.882927 C94.0697951,123.877741 93.9305505,123.864777 93.8091677,123.844034 C93.6473239,123.816377 93.5110883,123.775404 93.4004609,123.721115 C93.2898335,123.666826 93.2012291,123.597683 93.1346478,123.513688 C93.0680665,123.429694 93.0173623,123.331358 92.9825352,123.218682 C92.947708,123.106006 92.9246606,122.978477 92.913393,122.836096 C92.9021254,122.693714 92.8964916,122.53648 92.8964916,122.364393 L92.8964916,119.454277 L93.6616645,119.454277 L93.6616645,122.364393 C93.6616645,122.528285 93.6672983,122.659399 93.6785659,122.757735 C93.6898335,122.85607 93.719539,122.932382 93.7676824,122.986672 C93.8158258,123.040961 93.8885531,123.076813 93.9858642,123.094226 C94.0831754,123.11164 94.2178745,123.120347 94.3899615,123.120347 L95.1059667,123.120347 C95.1305505,123.120347 95.1658898,123.116761 95.2119846,123.109591 C95.2580793,123.102421 95.3041741,123.083471 95.3502688,123.052741 C95.3963636,123.022011 95.4368245,122.975404 95.4716517,122.91292 C95.5064788,122.850436 95.5238924,122.764905 95.5238924,122.656326 C95.5238924,122.611256 95.5203072,122.556454 95.513137,122.491922 L95.5004609,122.391665 L95.4643533,122.172715 L95.3763892,121.742114 L95.3210755,121.522395 L96.0432266,121.304213 L96.0980281,121.527858 L96.1646094,121.85735 L96.2137772,122.141601 L96.2345198,122.282575 L96.250653,122.419706 C96.2598719,122.509847 96.2644814,122.588721 96.2644814,122.656326 C96.2644814,122.867338 96.2296542,123.05018 96.16,123.204854 C96.0903457,123.359527 95.9991805,123.487056 95.8865044,123.58744 C95.7738284,123.687824 95.6473239,123.7626 95.506991,123.811768 C95.3666581,123.860936 95.225813,123.885519 95.0844558,123.885519 L94.2670422,123.885519 Z M83.3149295,124.527773 L83.8434827,125.056326 L83.3241485,125.578733 L82.8078873,125.056326 L83.3149295,124.527773 Z M84.6055825,124.5247 L85.1341357,125.053253 L84.6117285,125.57566 L84.0954673,125.053253 L84.6055825,124.5247 Z M82.5405377,123.885519 L82.5003969,123.882927 C82.3432906,123.877741 82.204046,123.864777 82.0826632,123.844034 C81.9208194,123.816377 81.7845838,123.775404 81.6739564,123.721115 C81.563329,123.666826 81.4747247,123.597683 81.4081434,123.513688 C81.3415621,123.429694 81.2908578,123.331358 81.2560307,123.218682 C81.2212035,123.106006 81.1981562,122.978477 81.1868886,122.836096 C81.175621,122.693714 81.1699871,122.53648 81.1699871,122.364393 L81.1699871,119.454277 L81.93516,119.454277 L81.93516,122.364393 C81.93516,122.528285 81.9407938,122.659399 81.9520614,122.757735 C81.963329,122.85607 81.9930345,122.932382 82.0411779,122.986672 C82.0893213,123.040961 82.1620486,123.076813 82.2593597,123.094226 C82.3566709,123.11164 82.49137,123.120347 82.6634571,123.120347 L83.60379,123.120347 C83.728758,123.120347 83.8286299,123.108567 83.9034058,123.085007 C83.9781818,123.061448 84.0345198,123.032254 84.0724199,122.997427 C84.1103201,122.9626 84.1349039,122.923676 84.1461715,122.880654 C84.1574391,122.837632 84.1630729,122.795635 84.1630729,122.754662 L84.1630729,121.759015 L84.9251728,121.759015 L84.9251728,122.733151 C84.9251728,122.82534 84.9456594,122.897555 84.9866325,122.949796 C85.0276056,123.002037 85.0742125,123.040961 85.1264532,123.066569 C85.1786939,123.092178 85.2304225,123.107543 85.2816389,123.112664 L85.3861203,123.120347 L86.6491165,123.120347 C86.8498847,123.120347 87.0639692,123.09986 87.29137,123.058887 C87.5187708,123.017914 87.7430985,122.965161 87.9643533,122.900628 C88.1856081,122.836096 88.3961075,122.763881 88.5958514,122.683983 C88.7955953,122.604085 88.9692189,122.525212 89.1167221,122.447363 L88.644635,122.302933 L88.1333674,122.153893 L87.9697311,122.108951 L87.8168501,122.069386 C87.7185147,122.044802 87.6304225,122.02534 87.5525736,122.011 L87.4187281,121.991879 C87.4000625,121.990285 87.383218,121.989489 87.3681946,121.989489 C87.3210755,121.989489 87.2795902,121.995123 87.2437387,122.00639 C87.2078873,122.017658 87.175621,122.036096 87.1469398,122.061704 C87.1182586,122.087312 87.0916261,122.120603 87.0670422,122.161576 C87.0424583,122.202549 87.0168501,122.251717 86.9902176,122.309079 L86.2865044,122.097043 C86.3254289,121.974124 86.3730601,121.858887 86.4293982,121.751333 C86.4857362,121.643778 86.5543661,121.550052 86.635288,121.470155 C86.7162099,121.390257 86.8099359,121.327261 86.916466,121.281166 C87.0229961,121.235071 87.1448911,121.212024 87.282151,121.212024 C87.3354161,121.212024 87.4112163,121.223292 87.5095518,121.245827 C87.6078873,121.268362 87.719539,121.298067 87.844507,121.334943 L88.2455313,121.460936 L88.6742125,121.608439 L89.872676,122.041729 L89.9617925,122.662472 L89.8019974,122.770027 C89.7077592,122.833535 89.5827912,122.910872 89.4270934,123.002037 C89.2713956,123.093202 89.0890653,123.190001 88.8801024,123.292434 C88.6711395,123.394866 88.4457874,123.490129 88.204046,123.578221 C87.9623047,123.666313 87.7092957,123.739553 87.4450192,123.797939 C87.1807426,123.856326 86.9154417,123.885519 86.6491165,123.885519 L85.3861203,123.885519 C85.2119846,123.885519 85.0532138,123.86196 84.9098079,123.814841 C84.766402,123.767722 84.6455313,123.698067 84.5471959,123.605878 C84.4324711,123.702165 84.2967477,123.772843 84.1400256,123.817914 C83.9833034,123.862984 83.8045582,123.885519 83.60379,123.885519 L82.5405377,123.885519 Z M87.1192829,119.40511 L87.6847119,119.970539 L87.1254289,120.529822 L86.5661459,119.964393 L87.1192829,119.40511 Z M78.1984122,125.584879 C78.0529577,125.584879 77.9136491,125.56849 77.7804865,125.535712 C77.6473239,125.502933 77.5223559,125.45479 77.4055825,125.391281 C77.2888092,125.327773 77.1812548,125.251461 77.0829193,125.162344 C76.9845838,125.073228 76.8985403,124.971307 76.8247887,124.856582 C76.7940589,124.807414 76.7628169,124.74954 76.7310627,124.682959 C76.6993085,124.616377 76.6711395,124.541089 76.6465556,124.457094 C76.6219718,124.3731 76.6014852,124.279886 76.585096,124.177453 C76.5687067,124.07502 76.5605121,123.963368 76.5605121,123.842498 C76.5605121,123.742114 76.5656338,123.639169 76.575877,123.533663 C76.5861203,123.428157 76.6055825,123.315993 76.6342637,123.197171 C76.6629449,123.078349 76.7028937,122.949796 76.7541101,122.811512 C76.8053265,122.673228 76.8719078,122.519066 76.953854,122.349028 L77.6452752,122.677837 L77.5353307,122.91753 C77.5191691,122.955088 77.5040887,122.991452 77.4900896,123.026621 C77.4480921,123.132126 77.4148015,123.231486 77.3902176,123.3247 C77.3656338,123.417914 77.347708,123.506518 77.3364404,123.590513 C77.3251728,123.674508 77.319539,123.759527 77.319539,123.845571 C77.319539,123.962344 77.3323431,124.071435 77.3579513,124.172843 C77.3750234,124.240449 77.3977863,124.30373 77.4262398,124.362686 L77.4701152,124.444802 C77.5479641,124.55543 77.6519334,124.645571 77.782023,124.715225 C77.9121126,124.784879 78.050909,124.819706 78.1984122,124.819706 L78.3397695,124.819706 C78.5548783,124.819706 78.7305505,124.797171 78.8667861,124.752101 C79.0030217,124.70703 79.1095518,124.643522 79.1863764,124.561576 C79.263201,124.47963 79.3154417,124.38027 79.3430985,124.263496 C79.3707554,124.146723 79.3845838,124.016633 79.3845838,123.873228 L79.3845838,119.454277 L80.1405377,119.454277 L80.1405377,123.873228 C80.1405377,125.010231 79.5402816,125.580782 78.3397695,125.584879 L78.1984122,125.584879 Z M74.0253008,121.762088 L74.0253008,123.698067 C74.0130089,123.980782 73.9607682,124.235327 73.8685787,124.461704 C73.7763892,124.68808 73.6493726,124.880654 73.4875288,125.039425 C73.325685,125.198196 73.1300384,125.320603 72.9005889,125.406646 C72.6711395,125.49269 72.4119846,125.535712 72.1231242,125.535712 L71.7420742,125.535712 L71.7420742,124.770539 L72.1231242,124.770539 C72.3197951,124.770539 72.4898335,124.750052 72.6332394,124.709079 C72.7766453,124.668106 72.894443,124.602549 72.9866325,124.512408 C73.078822,124.422267 73.1474519,124.304982 73.1925224,124.160551 C73.2375928,124.016121 73.260128,123.840449 73.260128,123.633535 L73.260128,121.762088 L74.0253008,121.762088 Z M71.9418181,119.454277 L71.9418181,123.885519 L71.1766453,123.885519 L71.1766453,119.454277 L71.9418181,119.454277 Z M66.0754929,123.885519 C66.0058386,123.885519 65.9315749,123.88091 65.8527016,123.871691 C65.7738284,123.862472 65.6949551,123.847107 65.6160819,123.825596 C65.5372087,123.804085 65.4608962,123.774892 65.3871446,123.738016 C65.313393,123.70114 65.2478361,123.65607 65.1904737,123.602805 C64.9671702,123.789233 64.6639692,123.883471 64.2808706,123.885519 L60.7346478,123.885519 C60.5830473,123.885519 60.4396414,123.859911 60.3044302,123.808695 C60.1692189,123.757479 60.0493726,123.682703 59.9448911,123.584367 C59.903918,123.545443 59.8614084,123.498324 59.8173623,123.44301 C59.7733162,123.387696 59.7338796,123.322139 59.6990524,123.246339 C59.6642253,123.170539 59.6355441,123.085007 59.6130089,122.989745 C59.5904737,122.894482 59.5792061,122.78744 59.5792061,122.668618 C59.5792061,122.566185 59.5894494,122.455046 59.6099359,122.335199 L59.6425864,122.160423 L59.7041741,121.893885 L59.7943149,121.574636 L60.522612,121.80511 L60.4642253,122.003317 L60.4058386,122.241473 C60.3874007,122.32342 60.3720358,122.402293 60.3597439,122.478093 C60.3474519,122.553893 60.341306,122.61945 60.341306,122.674764 C60.341306,122.7731 60.3551344,122.852485 60.3827912,122.91292 C60.4104481,122.973356 60.4442509,123.01945 60.4841997,123.051205 C60.5241485,123.082959 60.5676824,123.103957 60.6148015,123.114201 C60.6619206,123.124444 60.703918,123.129566 60.7407938,123.129566 L64.2593597,123.129566 C64.3720358,123.129566 64.4683226,123.11881 64.5482202,123.097299 C64.6281177,123.075788 64.6875288,123.044546 64.7264532,123.003573 C64.7735723,122.950308 64.7971318,122.873484 64.7971318,122.7731 L64.7971318,121.762088 L65.5592317,121.762088 L65.5592317,122.662472 C65.5592317,122.734175 65.5699871,122.795123 65.591498,122.845315 C65.6130089,122.895507 65.6406658,122.937504 65.6744686,122.971307 C65.7082714,123.00511 65.7456594,123.031742 65.7866325,123.051205 C65.8276056,123.070667 65.8675544,123.085519 65.9064788,123.095763 L65.9614084,123.108439 L66.0482202,123.119194 L67.0680665,123.120347 C67.2688348,123.120347 67.4829193,123.09986 67.7103201,123.058887 C67.9377208,123.017914 68.1620486,122.965161 68.3833034,122.900628 C68.6045582,122.836096 68.8150576,122.763881 69.0148015,122.683983 C69.2145454,122.604085 69.388169,122.525212 69.5356722,122.447363 L69.0635851,122.302933 L68.5523175,122.153893 L68.3886811,122.108951 L68.2358002,122.069386 C68.1374647,122.044802 68.0493726,122.02534 67.9715236,122.011 L67.8376781,121.991879 C67.8190126,121.990285 67.8021681,121.989489 67.7871446,121.989489 C67.7400256,121.989489 67.6985403,121.995123 67.6626888,122.00639 C67.6268373,122.017658 67.594571,122.036096 67.5658898,122.061704 C67.5372087,122.087312 67.5105761,122.120603 67.4859923,122.161576 C67.4614084,122.202549 67.4358002,122.251717 67.4091677,122.309079 L66.7054545,122.097043 C66.744379,121.974124 66.7920102,121.858887 66.8483482,121.751333 C66.9046863,121.643778 66.9733162,121.550052 67.0542381,121.470155 C67.13516,121.390257 67.228886,121.327261 67.3354161,121.281166 C67.4419462,121.235071 67.5638412,121.212024 67.7011011,121.212024 C67.7543661,121.212024 67.8301664,121.223292 67.9285019,121.245827 C68.0268373,121.268362 68.1384891,121.298067 68.2634571,121.334943 L68.6644814,121.460936 L69.0931626,121.608439 L70.2916261,122.041729 L70.3807426,122.662472 L70.2209475,122.770027 C70.1267093,122.833535 70.0017413,122.910872 69.8460435,123.002037 C69.6903457,123.093202 69.5080153,123.190001 69.2990524,123.292434 C69.0900896,123.394866 68.8647375,123.490129 68.6229961,123.578221 C68.3812548,123.666313 68.1282458,123.739553 67.8639692,123.797939 C67.5996927,123.856326 67.3343918,123.885519 67.0680665,123.885519 L66.0754929,123.885519 Z M61.8900896,120.45607 L62.4186427,120.984623 L61.8993085,121.50703 L61.3830473,120.984623 L61.8900896,120.45607 Z M63.1807426,120.452997 L63.7092957,120.98155 L63.1868886,121.503957 L62.6706274,120.98155 L63.1807426,120.452997 Z M52.6772855,123.885519 C52.5994366,123.885519 52.5200512,123.880398 52.4452752,123.870155 C52.3704993,123.859911 52.2972599,123.83123 52.2255569,123.784111 C52.2009731,124.048388 52.1405377,124.28808 52.0442509,124.503189 C51.9479641,124.718298 51.819411,124.902165 51.6585915,125.05479 C51.497772,125.207414 51.3057106,125.325724 51.0824071,125.409719 C50.8591037,125.493714 50.6081434,125.535712 50.3295262,125.535712 L49.9454033,125.535712 L49.9454033,124.770539 L50.3295262,124.770539 C50.5261971,124.770539 50.6962355,124.750052 50.8396414,124.709079 C50.9830473,124.668106 51.100845,124.602549 51.1930345,124.512408 C51.285224,124.422267 51.353854,124.304982 51.3989244,124.160551 C51.4439948,124.016121 51.46653,123.840449 51.46653,123.633535 L51.46653,121.762088 L52.2317029,121.762088 L52.2317029,122.68091 C52.2317029,122.775148 52.2516773,122.850948 52.2916261,122.908311 C52.3315749,122.965673 52.3776696,123.010231 52.4299103,123.041986 C52.482151,123.07374 52.5328553,123.094738 52.582023,123.104982 L52.6598719,123.118639 C52.6694323,123.119778 52.6772855,123.120347 52.6834314,123.120347 L53.6083994,123.120347 C53.8091677,123.120347 54.0232522,123.09986 54.250653,123.058887 C54.4780537,123.017914 54.7023815,122.965161 54.9236363,122.900628 C55.1448911,122.836096 55.3553905,122.763881 55.5551344,122.683983 C55.7548783,122.604085 55.9285019,122.525212 56.0760051,122.447363 L55.603918,122.302933 L55.0926504,122.153893 L54.929014,122.108951 L54.7761331,122.069386 C54.6777976,122.044802 54.5897055,122.02534 54.5118565,122.011 L54.378011,121.991879 C54.3593455,121.990285 54.342501,121.989489 54.3274775,121.989489 C54.2803585,121.989489 54.2388732,121.995123 54.2030217,122.00639 C54.1671702,122.017658 54.1349039,122.036096 54.1062227,122.061704 C54.0775416,122.087312 54.050909,122.120603 54.0263252,122.161576 C54.0017413,122.202549 53.9761331,122.251717 53.9495006,122.309079 L53.2457874,122.097043 C53.2847119,121.974124 53.3323431,121.858887 53.3886811,121.751333 C53.4450192,121.643778 53.5136491,121.550052 53.594571,121.470155 C53.6754929,121.390257 53.7692189,121.327261 53.875749,121.281166 C53.9822791,121.235071 54.1041741,121.212024 54.241434,121.212024 C54.2946991,121.212024 54.3704993,121.223292 54.4688348,121.245827 L54.6832607,121.300458 C54.7219576,121.311156 54.762134,121.322651 54.80379,121.334943 L55.2048143,121.460936 L55.6334955,121.608439 L56.831959,122.041729 L56.9210755,122.662472 L56.7612804,122.770027 C56.6670422,122.833535 56.5420742,122.910872 56.3863764,123.002037 C56.2306786,123.093202 56.0483482,123.190001 55.8393854,123.292434 C55.6304225,123.394866 55.4050704,123.490129 55.163329,123.578221 C54.9215877,123.666313 54.6685787,123.739553 54.4043021,123.797939 C54.1400256,123.856326 53.8747247,123.885519 53.6083994,123.885519 L52.6772855,123.885519 Z M54.0785659,119.40511 L54.6439948,119.970539 L54.0847119,120.529822 L53.5254289,119.964393 L54.0785659,119.40511 Z M47.8158258,124.509335 L48.344379,125.037888 L47.8250448,125.560295 L47.3087836,125.037888 L47.8158258,124.509335 Z M49.1064788,124.506262 L49.635032,125.034815 L49.1126248,125.557222 L48.5963636,125.034815 L49.1064788,124.506262 Z M47.0598719,123.885519 C46.7874007,123.885519 46.5272215,123.765673 46.2793341,123.52598 C46.2117285,123.605878 46.1313188,123.671947 46.0381049,123.724188 C45.9448911,123.776429 45.8450192,123.817914 45.7384891,123.848644 C45.631959,123.879374 45.5238924,123.900884 45.4142893,123.913176 C45.3046863,123.925468 45.1996927,123.931614 45.0993085,123.931614 C45.0214596,123.931614 44.9425864,123.927005 44.8626888,123.917786 L44.6885531,123.891153 L44.5907298,123.871691 C44.5231242,123.85735 44.4489173,123.839823 44.3681092,123.819109 L44.2419462,123.785648 C44.1108322,123.749796 43.9541101,123.704213 43.7717797,123.6489 L43.9930345,122.914457 C44.1180025,122.963624 44.2470678,123.007158 44.3802304,123.045059 C44.513393,123.082959 44.6434827,123.113688 44.7704993,123.137248 L44.9571831,123.166057 L45.1361843,123.181806 C45.1833034,123.185904 45.2283738,123.187952 45.2713956,123.187952 C45.3349039,123.187952 45.4035339,123.182831 45.4772855,123.172587 C45.5510371,123.162344 45.6201792,123.140321 45.6847119,123.106518 C45.7492445,123.072715 45.7927784,123.027133 45.8153137,122.96977 C45.8255569,122.945187 45.8306786,122.922651 45.8306786,122.902165 C45.8306786,122.883727 45.8250448,122.861192 45.8137772,122.834559 L45.7918822,122.790385 L45.6647375,122.588721 L44.5738284,121.055302 L45.2191549,120.640449 L46.3162099,122.302933 C46.375621,122.393074 46.4381049,122.486288 46.5036619,122.582575 C46.5692189,122.678861 46.6347759,122.766441 46.7003329,122.845315 C46.7658898,122.924188 46.8293982,122.989233 46.8908578,123.040449 C46.9523175,123.091665 47.0086555,123.117274 47.0598719,123.117274 L47.3087836,123.117274 L48.5318309,123.120347 C48.5564148,123.120347 48.5917541,123.116761 48.6378489,123.109591 C48.6839436,123.102421 48.7300384,123.083471 48.7761331,123.052741 C48.8222279,123.022011 48.8626888,122.975404 48.897516,122.91292 C48.9323431,122.850436 48.9497567,122.764905 48.9497567,122.656326 C48.9497567,122.611256 48.9461715,122.556454 48.9390012,122.491922 L48.9263252,122.391665 L48.8902176,122.172715 L48.8022535,121.742114 L48.7469398,121.522395 L49.4690909,121.304213 L49.5090396,121.462814 L49.5647375,121.722523 L49.6396414,122.141601 L49.6603841,122.282575 L49.6765172,122.419706 C49.6857362,122.509847 49.6903457,122.588721 49.6903457,122.656326 C49.6903457,122.867338 49.6555185,123.05018 49.5858642,123.204854 C49.5162099,123.359527 49.4250448,123.487056 49.3123687,123.58744 C49.1996927,123.687824 49.0731882,123.7626 48.9328553,123.811768 C48.7925224,123.860936 48.6516773,123.885519 48.5103201,123.885519 L47.0598719,123.885519 Z M33.0624327,124.527773 L33.5909859,125.056326 L33.0716517,125.578733 L32.5553905,125.056326 L33.0624327,124.527773 Z M34.3530857,124.5247 L34.8816389,125.053253 L34.3592317,125.57566 L33.8429705,125.053253 L34.3530857,124.5247 Z M35.1336235,123.885519 C34.9594878,123.885519 34.800717,123.86196 34.6573111,123.814841 C34.5139052,123.767722 34.3930345,123.698067 34.2946991,123.605878 C34.1799743,123.702165 34.0442509,123.772843 33.8875288,123.817914 C33.7308066,123.862984 33.5520614,123.885519 33.3512932,123.885519 L32.1620486,123.885519 C31.8895774,123.885519 31.6293982,123.765673 31.3815108,123.52598 C31.3139052,123.605878 31.2334955,123.671947 31.1402816,123.724188 C31.0470678,123.776429 30.9471959,123.817914 30.8406658,123.848644 C30.7341357,123.879374 30.6260691,123.900884 30.516466,123.913176 C30.4068629,123.925468 30.3018693,123.931614 30.2014852,123.931614 C30.1236363,123.931614 30.0447631,123.927005 29.9648655,123.917786 L29.7907298,123.891153 L29.6929065,123.871691 C29.6253008,123.85735 29.551094,123.839823 29.4702859,123.819109 L29.3441229,123.785648 C29.2130089,123.749796 29.0562868,123.704213 28.8739564,123.6489 L29.0952112,122.914457 C29.2201792,122.963624 29.3492445,123.007158 29.4824071,123.045059 C29.6155697,123.082959 29.7456594,123.113688 29.872676,123.137248 L30.0593597,123.166057 L30.238361,123.181806 C30.2854801,123.185904 30.3305505,123.187952 30.3735723,123.187952 C30.4370806,123.187952 30.5057106,123.182831 30.5794622,123.172587 C30.6532138,123.162344 30.7223559,123.140321 30.7868886,123.106518 C30.8514212,123.072715 30.8949551,123.027133 30.9174903,122.96977 C30.9277336,122.945187 30.9328553,122.922651 30.9328553,122.902165 C30.9328553,122.883727 30.9272215,122.861192 30.9159539,122.834559 L30.8940589,122.790385 L30.7669142,122.588721 L29.6760051,121.055302 L30.3213316,120.640449 L31.4183866,122.302933 C31.4777976,122.393074 31.5402816,122.486288 31.6058386,122.582575 C31.6713956,122.678861 31.7369526,122.766441 31.8025096,122.845315 C31.8680665,122.924188 31.9315749,122.989233 31.9930345,123.040449 C32.0544942,123.091665 32.1108322,123.117274 32.1620486,123.117274 L33.3512932,123.120347 C33.4762612,123.120347 33.5761331,123.108567 33.650909,123.085007 C33.725685,123.061448 33.782023,123.032254 33.8199231,122.997427 C33.8578233,122.9626 33.8824071,122.923676 33.8936747,122.880654 C33.9049423,122.837632 33.9105761,122.795635 33.9105761,122.754662 L33.9105761,121.759015 L34.672676,121.759015 L34.672676,122.733151 C34.672676,122.82534 34.6931626,122.897555 34.7341357,122.949796 C34.7751088,123.002037 34.8217157,123.040961 34.8739564,123.066569 C34.9261971,123.092178 34.9779257,123.107543 35.0291421,123.112664 L35.1336235,123.120347 L36.0124968,123.120347 C36.1374647,123.120347 36.2373367,123.108567 36.3121126,123.085007 C36.3868886,123.061448 36.4432266,123.032254 36.4811267,122.997427 C36.5190268,122.9626 36.5436107,122.923676 36.5548783,122.880654 C36.5661459,122.837632 36.5717797,122.795635 36.5717797,122.754662 L36.5717797,121.759015 L37.3338796,121.759015 L37.3338796,122.733151 C37.3338796,122.82534 37.3543661,122.897555 37.3953393,122.949796 C37.4363124,123.002037 37.4829193,123.040961 37.53516,123.066569 C37.5874007,123.092178 37.6391293,123.107543 37.6903457,123.112664 L37.7948271,123.120347 L39.7482202,123.118298 L39.8014852,123.115737 C39.8588476,123.112664 39.9151856,123.10447 39.9704993,123.091153 C40.025813,123.077837 40.0734443,123.058375 40.113393,123.032767 C40.1533418,123.007158 40.1733162,122.971819 40.1733162,122.926749 C40.1733162,122.838656 40.1400256,122.732126 40.0734443,122.607158 C40.0068629,122.48219 39.9213316,122.349028 39.8168501,122.207671 C39.7123687,122.066313 39.5950832,121.92342 39.4649935,121.778989 C39.3349039,121.634559 39.2058386,121.498324 39.0777976,121.370283 C38.9497567,121.242242 38.8293982,121.129053 38.7167221,121.030718 L38.5012291,120.850948 C38.4815108,120.835584 38.463201,120.821755 38.4462996,120.809463 L38.5077592,120.114969 L41.1812548,118.891922 L41.4608962,119.561832 L39.2114724,120.554406 L39.4742125,120.812536 L39.6220998,120.961192 L39.7738284,121.118298 C39.8762612,121.225852 39.9781818,121.337504 40.0795902,121.453253 C40.1809987,121.569002 40.2762612,121.684751 40.3653777,121.8005 C40.4544942,121.916249 40.5338796,122.029438 40.6035339,122.140065 C40.6731882,122.250692 40.7274775,122.355174 40.766402,122.453509 C40.8012291,122.539553 40.825813,122.622523 40.8401536,122.702421 C40.8544942,122.782318 40.8616645,122.855046 40.8616645,122.920603 C40.8616645,123.002549 40.853982,123.074252 40.8386171,123.135712 C40.8232522,123.197171 40.8063508,123.249412 40.7879129,123.292434 C40.763329,123.347747 40.7254289,123.410231 40.6742125,123.479886 C40.6229961,123.54954 40.5518053,123.614073 40.4606402,123.673484 C40.369475,123.732895 40.2547503,123.783087 40.116466,123.82406 C39.9781818,123.865033 39.8107042,123.885519 39.6140332,123.885519 L37.7948271,123.885519 C37.6206914,123.885519 37.4619206,123.86196 37.3185147,123.814841 C37.1751088,123.767722 37.0542381,123.698067 36.9559026,123.605878 C36.8411779,123.702165 36.7054545,123.772843 36.5487323,123.817914 C36.3920102,123.862984 36.213265,123.885519 36.0124968,123.885519 L35.1336235,123.885519 Z M36.7715236,119.78616 L37.3369526,120.351589 L36.7776696,120.910872 L36.2183866,120.345443 L36.7715236,119.78616 Z M27.7215877,122.935968 C27.8834314,122.935968 28.0078873,122.981038 28.0949551,123.071179 C28.182023,123.16132 28.2255569,123.273996 28.2255569,123.409207 C28.2255569,123.544418 28.182023,123.65607 28.0949551,123.744162 C28.0078873,123.832254 27.8834314,123.876301 27.7215877,123.876301 C27.5720358,123.876301 27.4521895,123.832767 27.3620486,123.745699 C27.2719078,123.658631 27.2268373,123.546467 27.2268373,123.409207 C27.2268373,123.273996 27.2703713,123.16132 27.3574391,123.071179 C27.444507,122.981038 27.5658898,122.935968 27.7215877,122.935968 Z" id="Shape" fill="#00FFFF" fill-rule="nonzero"></path>
            </g>
        </g>
    </g>
</svg>